<svg width="53" height="52" viewBox="0 0 53 52" fill="none" xmlns="http://www.w3.org/2000/svg">
<path fill-rule="evenodd" clip-rule="evenodd" d="M22.346 6.89236C22.9775 8.13502 24.0425 9.10318 25.3395 9.61374C25.2754 9.68302 25.2182 9.74653 25.1633 9.80737L25.1632 9.80752L25.1631 9.80764C25.0972 9.88072 25.0348 9.94994 24.9682 10.0207C24.6948 10.2949 24.4242 10.5723 24.1537 10.8497C23.5258 11.4935 22.898 12.1373 22.2341 12.7408C20.7806 14.0646 21.0298 15.9632 22.2341 17.1281C23.5108 18.3616 24.7723 19.6142 26.0033 20.8948C27.1313 22.066 28.8849 21.7544 29.3491 20.1432C29.7319 18.8194 30.87 18.2688 32.1748 18.6172C33.3918 18.9427 34.3684 20.1368 34.4383 21.3856C34.5032 22.4894 33.9297 23.1965 32.5308 23.7293C31.2859 24.2037 30.898 25.6546 31.8479 26.672C33.2557 28.1776 34.7143 29.6413 36.2327 31.0402C37.3606 32.074 38.9362 31.9507 40.0312 30.8799C40.6697 30.2547 41.3001 29.6213 41.9305 28.988L41.9307 28.9878C42.267 28.6499 42.6032 28.3121 42.9407 27.9754C43.0166 27.9004 43.0962 27.8291 43.1845 27.7501C43.2323 27.7072 43.2826 27.6622 43.3362 27.613C43.729 28.6066 44.3892 29.4719 45.2437 30.1131C46.8066 31.3365 49.1783 31.428 50.642 30.3433C52.6678 28.8491 52.8153 26.0158 51.2956 24.0167C50.6553 23.1678 49.7927 22.5125 48.8032 22.1232C49.1045 21.8211 49.4031 21.5227 49.6994 21.2266L49.7054 21.2206L49.7077 21.2183C50.4699 20.4566 51.2167 19.7103 51.9556 18.9567C52.2114 18.711 52.4326 18.4316 52.6131 18.1263C53.2299 17.0022 52.9793 15.7216 51.9391 14.661C51.2199 13.9267 50.4919 13.2019 49.7638 12.4769L49.7636 12.4767L49.7634 12.4766C49.3883 12.1031 49.0131 11.7295 48.6391 11.3547C48.5708 11.2848 48.5079 11.2123 48.4413 11.1354L48.4412 11.1353L48.4412 11.1353L48.4411 11.1352C48.3962 11.0833 48.3495 11.0295 48.2983 10.9732C50.263 9.97998 51.213 8.42727 50.8785 6.29213C50.5441 4.15699 49.2368 2.71873 47.1602 2.18081C44.8254 1.57677 43.0743 2.51017 41.9298 4.74323C41.8169 4.58495 41.6959 4.43257 41.5673 4.2867L41.1073 3.82318C40.1877 2.89644 39.2683 1.96984 38.3386 1.05538C36.9117 -0.354906 35.3285 -0.343461 33.9297 1.05538C33.0098 1.97692 32.0883 2.89761 31.1651 3.81745C31.0997 3.88282 31.0269 3.94195 30.9442 4.00923C30.903 4.04273 30.8593 4.07825 30.8128 4.11757C30.4381 3.1293 29.7831 2.27188 28.9282 1.65052C27.5052 0.615381 25.9474 0.260584 24.2942 0.982895C22.0154 1.97989 21.1761 4.6504 22.346 6.89236ZM34.1591 26.1238L33.6028 25.5605C36.0928 24.4872 36.7159 22.3165 36.3751 20.5463C36.0241 18.7011 34.2438 16.9208 32.3986 16.5723C30.678 16.2468 28.4894 16.8114 27.3818 19.3548C27.0007 18.9755 26.6189 18.5979 26.2374 18.2206L26.2373 18.2205L26.2371 18.2204C25.3306 17.3239 24.4259 16.4292 23.5363 15.5181C23.1052 15.0807 23.1662 14.689 23.6139 14.2388L26.6659 11.1868C27.949 9.90241 27.7074 8.46542 26.0644 7.71005C25.3878 7.39976 24.8016 6.99028 24.3794 6.37352C23.6482 5.29768 23.7054 3.95098 24.5066 3.20705C25.3293 2.4415 26.7078 2.4733 27.7252 3.27063C28.2939 3.72946 28.7298 4.33177 28.9879 5.01537C29.0858 5.26857 29.2359 5.4983 29.4285 5.68959C29.6211 5.88088 29.8519 6.02942 30.1057 6.12554C30.9311 6.45109 31.6241 6.23363 32.2294 5.62705L35.3921 2.46185C35.9631 1.88833 36.3039 1.8807 36.8901 2.46185C38.1135 3.68011 39.3343 4.90007 40.5525 6.12173C41.0129 6.58334 41.5394 6.89872 42.2121 6.85421C43.0743 6.79571 43.5626 6.28704 43.8729 5.50751C44.3434 4.33248 45.2781 3.84162 46.5052 4.0667C47.7935 4.30323 48.8884 5.58762 48.9214 6.90381C48.9481 7.91224 48.4611 8.66635 47.4704 9.05675C46.6998 9.35941 46.1619 9.82103 46.092 10.6921C46.0373 11.3903 46.3552 11.9269 46.8282 12.3987C48.0101 13.5814 49.1944 14.7661 50.3813 15.953C51.0807 16.6563 51.0795 16.9449 50.3953 17.6329C50.1892 17.8435 49.9848 18.0545 49.7765 18.2694L49.7747 18.2712C49.5748 18.4775 49.3713 18.6876 49.1592 18.9046C48.999 18.7647 48.8718 18.6503 48.7447 18.5231C47.7871 17.5617 46.8333 16.6054 45.8707 15.6542C45.5553 15.3414 45.1916 15.1506 44.7262 15.3172C44.3383 15.4571 44.0407 15.7496 44.0751 16.1311C44.1128 16.5073 44.2661 16.8627 44.5138 17.1484C45.1525 17.8322 45.8188 18.4905 46.4849 19.1486L46.4849 19.1486L46.485 19.1487C46.7578 19.4182 47.0305 19.6876 47.3013 19.9588C47.3884 20.0468 47.4748 20.1384 47.5704 20.2398L47.6726 20.3479L47.5796 20.4447L47.5794 20.445L47.5793 20.4451C47.4657 20.5632 47.3582 20.675 47.253 20.7892C46.2891 21.8244 46.5574 23.3059 47.8418 23.9099C48.5387 24.238 49.2037 24.5852 49.6743 25.2223C50.1448 25.8594 50.4093 26.5639 50.263 27.3587C49.9884 28.8554 48.4407 29.5281 46.9694 28.7957C46.2794 28.4577 45.725 27.8948 45.3976 27.1997C45.2685 26.8879 45.1132 26.5876 44.9335 26.3019C44.2124 25.2871 42.8912 25.1727 41.9832 26.0628C41.2544 26.7731 40.5361 27.4946 39.8178 28.2161C39.4494 28.5861 39.081 28.9561 38.7112 29.3247C38.2597 29.7749 37.868 29.8321 37.4331 29.4073C36.334 28.3266 35.2459 27.2246 34.1595 26.1242L34.1591 26.1238ZM2.34513 32.635C1.74363 33.2136 1.20062 33.8151 0.946289 34.6354V35.5497C1.14849 36.4818 1.72582 37.1673 2.39091 37.8158C3.09577 38.4961 3.78571 39.1908 4.47555 39.8853C4.7515 40.1631 5.02744 40.4409 5.30431 40.7178C5.36313 40.7759 5.41873 40.837 5.47564 40.8995C5.53193 40.9613 5.58951 41.0246 5.65275 41.0878C3.03819 42.2323 2.53715 44.4603 2.88432 46.1745C3.25692 48.0121 5.01564 49.7505 6.86593 50.0697C9.06847 50.4537 10.5385 49.6436 11.9208 47.1944C11.9916 47.2805 12.0583 47.3648 12.1231 47.4469L12.1232 47.447L12.1234 47.4472L12.1234 47.4472C12.2682 47.6303 12.4039 47.802 12.5567 47.9574C12.9386 48.3476 13.3249 48.7326 13.7109 49.1173L13.7113 49.1177C14.2132 49.6179 14.7147 50.1176 15.2056 50.6279C15.8274 51.2727 16.5001 51.8119 17.3992 52.0051H18.3135C19.0994 51.7712 19.6882 51.2561 20.2439 50.6775C20.8488 50.0475 21.4699 49.4336 22.0909 48.8197L22.0931 48.8176C22.2899 48.623 22.4867 48.4284 22.683 48.2334C22.745 48.1678 22.8146 48.1123 22.8878 48.054L22.888 48.0539C22.9183 48.0297 22.9493 48.0051 22.9806 47.979C23.7677 49.4682 24.8538 50.5389 26.4561 51.0247C28.5035 51.644 30.6386 50.7513 31.4995 48.8056C32.2384 47.1423 31.9497 45.5298 30.8395 44.1373C30.4392 43.6318 29.9356 43.2066 29.4233 42.774C29.1941 42.5805 28.9632 42.3855 28.739 42.1811C29.0489 41.87 29.3595 41.5596 29.67 41.2491C30.3347 40.5846 30.9995 39.92 31.6585 39.249C31.9141 39.0035 32.1376 38.7266 32.3236 38.4249C32.9607 37.3084 32.7229 35.9986 31.6966 34.9533C30.9453 34.1873 30.1852 33.4295 29.4255 32.672L29.4254 32.6719L29.4253 32.6717C29.0587 32.3062 28.6921 31.9407 28.3267 31.5744C28.2021 31.4498 28.0813 31.3176 27.9541 31.1739C30.0282 30.2112 30.987 28.6738 30.8077 26.6721C30.6259 24.6489 29.0757 22.8075 27.0652 22.2734C26.1786 22.0174 25.2336 22.0499 24.3667 22.3663C23.1255 22.838 22.2634 23.7257 21.7839 25.0151C21.7222 24.9561 21.6669 24.9038 21.6161 24.8557C21.5223 24.767 21.4435 24.6925 21.3668 24.6158C21.0086 24.2584 20.6519 23.8995 20.2951 23.5406L20.2922 23.5377L20.2914 23.5369C19.5287 22.7695 18.7656 22.0019 17.9867 21.2472C16.715 20.0098 15.0987 19.945 13.9085 21.0895C12.7627 22.1933 11.6296 23.3124 10.5462 24.476C10.24 24.8282 10.0465 25.264 9.99043 25.7273C9.90269 26.5323 10.3389 27.116 11.0345 27.5496C11.6156 27.9095 12.2209 28.2884 12.6711 28.7895C13.5664 29.7865 13.5244 31.2718 12.7207 32.0666C11.917 32.8614 10.4699 32.8868 9.47922 32.0208C8.99916 31.5763 8.59534 31.0561 8.28384 30.4808C7.50431 29.1176 6.11819 28.881 5.00547 29.9823C4.66535 30.3195 4.32802 30.6597 3.99063 30.9999L3.99058 31L3.9905 31.0001C3.44618 31.549 2.90171 32.0981 2.34513 32.635ZM28.718 42.2025C28.7095 42.2124 28.7035 42.2235 28.7028 42.2262C28.7022 42.2289 28.7064 42.2238 28.718 42.2025ZM6.0635 31.7944C6.1805 31.6787 6.30639 31.5681 6.45263 31.4409C7.06049 32.6376 7.88581 33.5722 9.05321 34.1585C11.9946 35.6133 15.3671 33.8673 15.3315 30.4706C15.3162 28.4525 14.206 27.0244 12.5185 26.007C12.4308 25.9535 12.34 25.9055 12.2375 25.8511L12.2374 25.8511C12.1913 25.8267 12.1429 25.801 12.0912 25.7731C12.3434 25.5195 12.5934 25.2665 12.8423 25.0146C13.6884 24.1586 14.5222 23.3149 15.3849 22.5023C15.5438 22.351 15.9495 22.3904 16.2178 22.4476C16.3736 22.4809 16.5116 22.6261 16.6408 22.762L16.6408 22.762C16.6698 22.7925 16.6983 22.8226 16.7265 22.8508C17.1675 23.2894 17.6068 23.7295 18.046 24.1695L18.0461 24.1695L18.0461 24.1696C18.8025 24.9272 19.5585 25.6846 20.3228 26.4343C20.5695 26.6881 20.8576 26.8979 21.1748 27.0549C22.1692 27.5102 23.2196 27.0409 23.6012 26.016C24.1747 24.4747 25.1844 23.8528 26.526 24.2204C28.0164 24.6273 29.0439 26.1507 28.7603 27.575C28.6065 28.3431 28.1601 28.9637 27.3971 29.1392C25.4972 29.5779 25.2035 31.5032 26.6341 32.7749C27.4988 33.5478 28.31 34.3813 29.121 35.2143C29.4561 35.5586 29.7912 35.9029 30.1299 36.2428C30.7963 36.9155 30.795 37.241 30.1401 37.8959C29.1592 38.876 28.1758 39.8619 27.1898 40.8538C26.0682 41.9831 26.2793 43.4226 27.6985 44.1449C28.7616 44.6854 29.5793 45.4141 29.7967 46.64C30.0956 48.3262 28.7285 49.5559 27.0665 49.1083C26.1687 48.8667 25.5239 48.2957 25.0483 47.5174C24.9783 47.403 24.9178 47.283 24.8572 47.1627C24.8188 47.0864 24.7803 47.01 24.7393 46.935C24.0526 45.6722 22.6258 45.4433 21.597 46.4505C20.9094 47.1231 20.2305 47.8055 19.5514 48.4881C19.1918 48.8496 18.8322 49.211 18.4712 49.5712C17.9358 50.1002 17.5963 50.1116 17.0457 49.5915C16.7351 49.2986 16.43 48.9986 16.1152 48.6888L16.115 48.6886C15.9323 48.5089 15.7463 48.326 15.554 48.1393L17.7693 45.9265C17.8761 45.8197 17.9834 45.7133 18.0908 45.607C18.3322 45.3677 18.5736 45.1285 18.8095 44.8838C19.322 44.3509 19.3423 43.7253 18.9176 43.3145C18.4928 42.9038 17.8926 42.9445 17.3839 43.4417C16.7048 44.1114 16.0315 44.7863 15.3581 45.4613C15.0392 45.781 14.7202 46.1008 14.4006 46.42C14.3503 46.4741 14.2948 46.5254 14.2213 46.5933L14.2211 46.5935C14.198 46.6148 14.1732 46.6377 14.1463 46.6628C14.026 46.5471 13.908 46.4302 13.7905 46.3137L13.7902 46.3134L13.79 46.3133C13.5125 46.0382 13.2376 45.7657 12.942 45.5183C12.0327 44.7553 10.7293 44.941 10.1659 45.8998C10.0633 46.0936 9.97815 46.2962 9.91159 46.5052C9.40165 47.9193 8.19483 48.4902 6.79599 47.9421C5.68836 47.5047 5.02327 46.6679 4.82871 45.4942C4.63414 44.3204 5.26998 43.4442 6.60651 42.9635C7.60223 42.6075 8.10581 41.8152 7.83622 40.836C7.69016 40.3898 7.44045 39.9845 7.10755 39.6534C6.27724 38.7861 5.42515 37.9393 4.57311 37.0925L4.57283 37.0922L4.57265 37.092C4.22428 36.7458 3.87592 36.3996 3.52906 36.052C2.8042 35.3259 2.8042 35.0525 3.52016 34.3378L6.0635 31.7944ZM21.8463 41.4083C21.8384 41.6726 21.7318 41.9243 21.5475 42.1138C21.3632 42.3033 21.1145 42.4169 20.8506 42.432C20.5853 42.4292 20.3314 42.324 20.1419 42.1385C19.9523 41.953 19.8417 41.7014 19.8332 41.4363C19.8298 41.1709 19.9315 40.915 20.1162 40.7244C20.3008 40.5338 20.5534 40.424 20.8188 40.4189C21.0846 40.4194 21.34 40.5226 21.5315 40.707C21.723 40.8914 21.8358 41.1427 21.8463 41.4083ZM43.0781 14.3521C43.2715 14.1723 43.3874 13.9242 43.4012 13.6604C43.407 13.3955 43.3102 13.1386 43.131 12.9433C42.9519 12.748 42.7042 12.6295 42.4398 12.6125C42.1755 12.6139 41.9214 12.7143 41.7276 12.894C41.5339 13.0737 41.4145 13.3195 41.3932 13.5828C41.3926 13.8474 41.4927 14.1022 41.6731 14.2956C41.8535 14.489 42.1008 14.6066 42.3647 14.6243C42.6288 14.6297 42.8846 14.532 43.0781 14.3521Z" fill="white"/>
</svg>
