<svg width="37" height="33" viewBox="0 0 37 33" fill="none" xmlns="http://www.w3.org/2000/svg">
<path fill-rule="evenodd" clip-rule="evenodd" d="M0.0953064 9.79881C0.0645666 9.96528 0.0338163 10.1318 0 10.2978V11.8602C0.0425253 12.0567 0.0802145 12.2551 0.117932 12.4537L0.117935 12.4537C0.196747 12.8685 0.275683 13.2841 0.399121 13.6846C1.23571 16.3798 3.00406 18.3356 5.36328 19.7964C5.62463 19.9584 5.7063 20.1203 5.66937 20.4193C5.50319 21.7736 5.22834 23.1009 4.7646 24.387C4.66091 24.6732 4.5764 24.9594 4.84414 25.2073C5.09625 25.4409 5.36186 25.3522 5.63812 25.2456C7.5637 24.5083 9.35137 23.4519 10.9261 22.1209C11.0486 22.021 11.202 21.967 11.36 21.9682C11.6921 21.9882 12.0236 22.02 12.3551 22.0518L12.3552 22.0518L12.3553 22.0518C12.6476 22.0799 12.94 22.108 13.2328 22.128C13.4366 22.1414 13.5424 22.2004 13.6177 22.4014C14.1677 23.8614 15.1051 25.144 16.3292 26.1114C19.444 28.6119 23.0262 29.327 26.9109 28.7958C27.2581 28.7483 27.5053 28.7951 27.7758 29.0203C29.2907 30.2801 30.9873 31.2282 32.8238 31.932C33.0752 32.0279 33.3103 32.0499 33.5191 31.8574C33.7556 31.6401 33.7257 31.3816 33.6249 31.106C33.1403 29.7581 32.8251 28.3552 32.6867 26.9295C32.6562 26.6333 32.686 26.4167 32.9602 26.2037C34.3351 25.1185 35.3741 23.7706 35.9301 22.0932C36.0604 21.7029 36.147 21.2953 36.2338 20.8874L36.2338 20.8874L36.2338 20.8873C36.2747 20.6948 36.3157 20.5022 36.3612 20.3113V18.891C36.3338 18.8128 36.312 18.7328 36.2959 18.6516C36.139 17.3423 35.6535 16.094 34.8848 15.0226C33.2343 12.689 30.9134 11.3673 28.1991 10.6692C27.903 10.5932 27.827 10.4682 27.7695 10.1905C27.7368 10.0316 27.7056 9.87199 27.6745 9.71226L27.6744 9.7118L27.6743 9.71135L27.6743 9.71132L27.6743 9.71128C27.5423 9.03473 27.41 8.35654 27.1601 7.72479C26.136 5.13832 24.242 3.31316 21.8473 1.98796C18.9753 0.397869 15.8818 -0.18874 12.6149 0.0520115C9.72947 0.265776 7.05493 1.12367 4.67867 2.80396C2.5815 4.28753 1.03189 6.19294 0.329523 8.71124C0.230032 9.06921 0.162693 9.43388 0.0953064 9.79881ZM6.3171 23.7237L6.31663 23.7239C6.27734 23.7407 6.23649 23.7581 6.19348 23.777C6.23674 23.5747 6.28165 23.3747 6.32627 23.176L6.32631 23.1758C6.42815 22.7223 6.52841 22.2758 6.60396 21.8254C6.66391 21.4666 6.70329 21.1045 6.74267 20.7424L6.7427 20.7422L6.7427 20.7422C6.77236 20.4695 6.80202 20.1969 6.84045 19.9257C6.89727 19.5266 6.74032 19.2844 6.39659 19.0934C5.13862 18.4019 4.02389 17.4771 3.11201 16.3684C0.389889 13.0533 0.497126 8.65016 3.38046 5.45719C5.36896 3.25563 7.89365 2.01495 10.7592 1.4468C13.8634 0.830368 16.9073 1.08248 19.8495 2.27913C21.8686 3.1001 23.6177 4.30599 24.9415 6.06297C27.4641 9.41218 27.2595 13.6179 24.4337 16.7221C22.409 18.9435 19.8481 20.1671 16.9406 20.7353C15.0542 21.1002 13.1171 21.1197 11.2237 20.7928C11.0858 20.764 10.9429 20.7698 10.8078 20.8097C10.6728 20.8496 10.5497 20.9224 10.4496 21.0215C9.27482 22.0706 7.95708 22.9477 6.53579 23.6264C6.46572 23.6603 6.3944 23.6907 6.3171 23.7237ZM14.8154 22.3418C14.7895 22.2846 14.7623 22.2248 14.7327 22.1613C14.9248 22.1388 15.1135 22.1183 15.2998 22.0981L15.3002 22.098L15.3007 22.098L15.3008 22.098C15.73 22.0514 16.146 22.0063 16.5593 21.9405C19.8367 21.4149 22.7442 20.1288 25.063 17.6929C26.5898 16.09 27.5585 14.2023 27.7851 11.971C27.79 11.924 27.7993 11.8777 27.8128 11.8325C27.8329 11.7963 27.8567 11.7623 27.8838 11.7309C28.0133 11.7717 28.1453 11.8115 28.2785 11.8516L28.2787 11.8517C28.5748 11.941 28.8768 12.032 29.1706 12.1393C30.9276 12.7784 32.4602 13.7549 33.6341 15.2307C35.9216 18.1055 35.727 21.8162 33.1519 24.4872C32.7608 24.882 32.3427 25.2491 31.9006 25.5858C31.6208 25.8038 31.4638 26.0368 31.5206 26.3968C31.6151 26.9912 31.7083 27.5858 31.8015 28.1804C31.8947 28.775 31.9879 29.3696 32.0824 29.9641C32.0962 30.0522 32.1174 30.1389 32.1421 30.2402L32.1422 30.2403C32.1557 30.2957 32.1703 30.3554 32.1854 30.4221C31.1753 29.9788 30.2158 29.4284 29.3233 28.7802C28.8923 28.4684 28.4732 28.1382 28.0706 27.7909C27.8234 27.5757 27.572 27.5232 27.2553 27.5843C24.4366 28.1254 21.7187 27.8115 19.1337 26.5502C17.3589 25.6845 15.9137 24.4431 14.9727 22.672C14.9177 22.5672 14.8691 22.4601 14.8155 22.3419L14.8154 22.3418ZM5.26101 6.16453C3.83213 7.56075 2.94938 9.22328 2.8464 11.1166C2.83149 11.7636 3.01116 12.0399 3.38401 12.0604C3.75685 12.081 3.95996 11.8048 3.98411 11.2729C4.04803 9.91428 4.54515 8.72544 5.39737 7.67721C6.35327 6.49334 7.58543 5.68161 8.95892 5.05949C9.34881 4.88337 9.47806 4.57728 9.33958 4.26764C9.20109 3.958 8.88009 3.86142 8.49659 4.02902C7.29497 4.55384 6.20129 5.24769 5.26101 6.16453ZM25.2881 26.1348C25.2687 26.1348 25.2464 26.1351 25.2222 26.1355H25.2222C25.1667 26.1363 25.101 26.1373 25.0353 26.1348C24.6745 26.1192 24.4352 25.894 24.433 25.5709C24.4309 25.2478 24.666 25.0376 25.0289 24.9971C25.179 24.9805 25.3297 24.9656 25.4805 24.9506C25.9757 24.9015 26.472 24.8522 26.9549 24.745C28.0308 24.5063 28.9874 23.9979 29.8325 23.2848L29.8671 23.2553C29.9768 23.1613 30.1109 23.0463 30.216 23.0604C30.4291 23.0874 30.6798 23.1691 30.8104 23.3189C31.0008 23.5355 30.9418 23.8317 30.7103 24.0114L30.6132 24.0869L30.6131 24.0869C30.1801 24.424 29.744 24.7634 29.2722 25.0383C28.0557 25.7442 26.7205 26.0673 25.2881 26.1348ZM32.3459 21.8773C32.7072 21.1462 32.9137 20.3483 32.9524 19.5337C32.9524 19.4627 32.9524 19.3916 32.9488 19.3185C32.9268 18.9833 32.7002 18.7518 32.392 18.7461C32.3179 18.7432 32.2439 18.7554 32.1747 18.782C32.1054 18.8086 32.0423 18.849 31.9892 18.9007C31.936 18.9525 31.894 19.0145 31.8655 19.083C31.8371 19.1515 31.8229 19.2251 31.8239 19.2993C31.803 20.0324 31.6306 20.7532 31.3175 21.4164C31.1691 21.7409 31.2856 22.0598 31.5831 22.1912C31.8807 22.3225 32.1832 22.2061 32.3459 21.8773Z" fill="white"/>
</svg>
