<svg width="13" height="12" viewBox="0 0 13 12" fill="none" xmlns="http://www.w3.org/2000/svg">
<path d="M2.13222 12V9.21687C0.812525 8.21896 0.0604248 6.78339 0.0604248 5.24882C0.0604248 2.35443 2.75202 0 6.06042 0C9.36882 0 12.0604 2.35443 12.0604 5.24882C12.0604 8.14322 9.36882 10.4976 6.06042 10.4976C5.66661 10.4975 5.27348 10.4633 4.88503 10.3955L2.13222 12ZM6.06042 0.845626C3.19707 0.845626 0.867575 2.82069 0.867575 5.24882C0.867575 6.5648 1.55757 7.80267 2.75997 8.64468L2.93922 8.7704V10.5619L4.74507 9.50901L4.88847 9.53714C5.27493 9.61294 5.66725 9.65113 6.06042 9.65123C8.92377 9.65123 11.2533 7.67617 11.2533 5.24851C11.2533 2.82085 8.92377 0.845626 6.06042 0.845626Z" fill="white"/>
</svg>
