<svg width="53" height="52" viewBox="0 0 53 52" fill="none" xmlns="http://www.w3.org/2000/svg">
<path fill-rule="evenodd" clip-rule="evenodd" d="M49.4895 26.1506C49.5044 25.0801 50.1909 24.3542 51.1543 24.3773C52.0904 24.3976 52.739 25.1357 52.739 26.1859C52.7471 38.6249 43.5074 49.5456 31.2218 51.6052C30.6333 51.7038 30.04 51.7799 29.4473 51.856C29.0862 51.9023 28.7253 51.9486 28.3658 52H0.741699V24.3746C0.786925 24.0462 0.82597 23.7159 0.865015 23.3856C0.943106 22.725 1.0212 22.0644 1.14873 21.4195C3.00074 12.1934 8.27726 5.70798 16.8711 1.94291C19.9754 0.584773 23.2643 0.00814069 26.6562 0C27.6222 0 28.3441 0.686531 28.3644 1.58608C28.3848 2.51005 27.6711 3.21693 26.6888 3.2522C26.5575 3.257 26.426 3.26089 26.2945 3.26478C25.8676 3.27741 25.4404 3.29005 25.0172 3.33361C16.0584 4.25487 9.48887 8.75395 5.92867 16.9869C2.24366 25.5075 3.59094 33.5885 9.49837 40.774C12.7981 44.7901 17.114 47.353 22.2277 48.2675C31.5705 49.9377 39.2444 46.9406 45.0501 39.4376C48.0486 35.5612 49.4203 31.0527 49.4895 26.1506ZM46.5412 3.25627H39.1277C38.0532 3.25627 37.3097 2.58738 37.3056 1.62814C37.3015 0.668893 38.0355 0 39.1115 0H50.9426C52.0796 0 52.739 0.660752 52.7335 1.80181V13.6329C52.7335 14.7062 52.0606 15.4456 51.1054 15.4402C50.1502 15.4347 49.4908 14.6994 49.4908 13.6139V6.25205V5.57366C49.2778 5.77175 49.1421 5.89793 49.0065 6.03361C40.4379 14.6021 31.8681 23.1707 23.2968 31.7392C22.2697 32.769 21.4638 32.7676 20.434 31.7392C18.6856 29.9935 16.9389 28.2459 15.1941 26.4966C14.7111 26.0081 14.5578 25.4193 14.7871 24.7721C14.8808 24.479 15.0601 24.2207 15.3019 24.0304C15.5437 23.8401 15.837 23.7265 16.1439 23.7043C16.7042 23.6406 17.1601 23.8631 17.5522 24.2592C18.3105 25.0255 19.0711 25.7847 19.8315 26.5437C20.3638 27.075 20.8959 27.6062 21.4272 28.1396C21.5205 28.234 21.6013 28.3394 21.6796 28.4416C21.7105 28.482 21.7411 28.5218 21.7718 28.5602L47.0758 3.25627H46.5412Z" fill="white"/>
</svg>
