<svg width="25" height="24" viewBox="0 0 25 24" fill="none" xmlns="http://www.w3.org/2000/svg">
<g clip-path="url(#clip0_48_135)">
<path d="M0.50002 0.801902V23.1981C0.499269 23.3037 0.519498 23.4083 0.55953 23.5059C0.599562 23.6035 0.6586 23.6922 0.733212 23.7668C0.807824 23.8414 0.896521 23.9005 0.994149 23.9405C1.09178 23.9805 1.19639 24.0008 1.3019 24H23.6981C23.8037 24.0008 23.9083 23.9805 24.0059 23.9405C24.1035 23.9005 24.1922 23.8414 24.2668 23.7668C24.3414 23.6922 24.4005 23.6035 24.4405 23.5059C24.4805 23.4083 24.5008 23.3037 24.5 23.1981V0.801902C24.5008 0.696388 24.4805 0.591777 24.4405 0.494149C24.4005 0.396521 24.3414 0.307824 24.2668 0.233212C24.1922 0.1586 24.1035 0.0995625 24.0059 0.0595301C23.9083 0.0194977 23.8037 -0.000730849 23.6981 2.01703e-05H1.3019C1.19639 -0.000730849 1.09178 0.0194977 0.994149 0.0595301C0.896521 0.0995625 0.807824 0.1586 0.733212 0.233212C0.6586 0.307824 0.599562 0.396521 0.55953 0.494149C0.519498 0.591777 0.499269 0.696388 0.50002 0.801902ZM16.8765 6.44896H14.7701C14.559 6.45535 14.3578 6.53987 14.2054 6.68614C14.1347 6.73705 14.0752 6.80189 14.0306 6.87667C13.9859 6.95145 13.957 7.03459 13.9457 7.12096V9.03531H16.8765C16.8426 9.41931 16.8087 9.79202 16.7692 10.1647L16.6506 11.1134C16.6054 11.4353 16.5603 11.7346 16.5151 12.0057H13.9061V20.7134H10.0153V12.0057H8.1179V9.03531H10.0153V6.65225C10.0153 6.54496 10.0153 6.30778 10.0605 5.94637C10.1099 5.54337 10.2509 5.15703 10.4727 4.81696C10.7708 4.37174 11.1743 4.00705 11.6473 3.75531C12.3782 3.40305 13.1864 3.2418 13.9965 3.28661H16.8765V6.44896Z" fill="#EF7962"/>
</g>
<defs>
<clipPath id="clip0_48_135">
<rect width="24" height="24" fill="white" transform="translate(0.5)"/>
</clipPath>
</defs>
</svg>
