<svg width="44" height="32" viewBox="0 0 44 32" fill="none" xmlns="http://www.w3.org/2000/svg">
<path fill-rule="evenodd" clip-rule="evenodd" d="M35.7405 0.357691C35.5115 0.586718 35.3828 0.897343 35.3828 1.22123C35.3828 1.54407 35.5106 1.85378 35.7383 2.08263C35.9661 2.31148 36.2751 2.44086 36.5979 2.44247L39.5753 2.44979C40.4461 2.44979 40.7966 2.74778 40.7966 3.52448V26.7279C40.7966 26.7721 40.7926 26.8162 40.7859 26.8897C40.7815 26.9382 40.776 26.9995 40.7697 27.0821C40.6847 26.9371 40.611 26.817 40.5451 26.7096C40.469 26.5855 40.4031 26.4782 40.3423 26.3689C37.6555 21.5352 34.9688 16.7012 32.2821 11.8667C32.2553 11.8191 32.2297 11.7708 32.2041 11.7225C32.1726 11.663 32.1412 11.6035 32.1075 11.5455C31.5066 10.5002 30.5284 10.4464 29.8225 11.4234L24.7837 18.4748C24.2449 19.2285 23.7048 19.9825 23.1622 20.74C22.502 21.6617 21.8379 22.5887 21.1677 23.5271C21.1119 23.488 21.0585 23.4517 21.007 23.4168C20.9007 23.3445 20.8027 23.2779 20.7097 23.2047C18.5839 21.53 16.4586 19.8552 14.3336 18.1805C13.3884 17.4343 12.9121 17.4588 12.0658 18.2892C9.08435 21.2039 6.10658 24.1267 3.13247 27.0577C2.96682 27.247 2.81923 27.4515 2.6916 27.6683L2.48155 27.6072C2.47722 27.5435 2.47104 27.48 2.46487 27.4166C2.45365 27.3012 2.44247 27.1861 2.44247 27.0711V3.68202C2.44247 2.73068 2.72824 2.44247 3.67714 2.44247H30.4087C30.7326 2.44247 31.0433 2.3138 31.2723 2.08478C31.5013 1.85575 31.63 1.54513 31.63 1.22123C31.63 0.897343 31.5013 0.586718 31.2723 0.357691C31.0433 0.128666 30.7326 0 30.4087 0H3.71622C1.35313 0 0 1.34336 0 3.70278V28.2581C0 30.6737 1.32137 31.9963 3.73453 32H21.5646H39.4581C41.9213 32 43.2439 30.686 43.2439 28.2435V3.74919C43.2427 1.34336 41.8993 0 39.5069 0H36.6041C36.2802 0 35.9695 0.128666 35.7405 0.357691ZM30.8191 14.253L39.3128 29.5392L4.08991 29.5368L13.3115 20.4911C14.8697 21.7172 16.4012 22.9226 17.9314 24.1291L20.3738 26.0575C21.2715 26.7695 21.9089 26.6889 22.5721 25.7619C25.1774 22.1218 27.7827 18.4822 30.388 14.8429C30.4732 14.7232 30.5601 14.6052 30.6605 14.4688C30.7097 14.4021 30.7621 14.3309 30.8191 14.253ZM15.764 13.967C16.6693 14.5708 17.7335 14.8922 18.8217 14.8905C20.2724 14.8828 21.6618 14.304 22.6888 13.2792C23.7158 12.2545 24.2978 10.8665 24.3087 9.41572C24.3128 8.32756 23.9937 7.26268 23.392 6.35603C22.7903 5.44937 21.9329 4.74177 20.9286 4.32289C19.9243 3.90401 18.8182 3.79271 17.7506 4.0031C16.683 4.21349 15.7018 4.7361 14.9315 5.50469C14.1612 6.27328 13.6364 7.25325 13.4237 8.32041C13.2109 9.38758 13.3197 10.4939 13.7364 11.4991C14.153 12.5044 14.8587 13.3633 15.764 13.967ZM21.3337 7.67981C21.6721 8.17867 21.8553 8.76653 21.8601 9.36931C21.8622 9.77198 21.7848 10.1711 21.6324 10.5438C21.48 10.9166 21.2556 11.2556 20.972 11.5415C20.6884 11.8273 20.3512 12.0544 19.9797 12.2098C19.6082 12.3652 19.2097 12.4457 18.807 12.4468C18.2042 12.4468 17.6149 12.2683 17.1134 11.9339C16.6118 11.5995 16.2205 11.1241 15.9887 10.5677C15.757 10.0112 15.6951 9.3986 15.8109 8.80703C15.9268 8.21547 16.2151 7.67143 16.6397 7.24349C17.0642 6.81556 17.6059 6.52287 18.1965 6.40232C18.7872 6.28177 19.4003 6.33876 19.9585 6.5661C20.5168 6.79344 20.9953 7.18096 21.3337 7.67981Z" fill="white"/>
</svg>
