<svg width="27" height="32" viewBox="0 0 27 32" fill="none" xmlns="http://www.w3.org/2000/svg">
<path fill-rule="evenodd" clip-rule="evenodd" d="M0 10.6549V15.966H0.0266857V22.1108L0.0264149 23.4607C0.0259418 25.0359 0.0254688 26.6114 0.0307922 28.1869C0.0264664 28.5092 0.0546684 28.8311 0.114958 29.1476C0.470778 30.8616 1.86258 31.9896 3.67316 31.9896C10.1276 31.9979 16.5826 31.9979 23.038 31.9896C23.4026 31.9898 23.7657 31.941 24.1178 31.8445C25.6717 31.4093 26.6591 30.0202 26.6639 28.2737C26.6676 26.5474 26.6664 24.8202 26.6651 23.0926V23.0922V23.0918C26.6645 22.2276 26.6639 21.3633 26.6639 20.4989C26.6671 14.921 26.6671 9.34288 26.6639 3.7645C26.6619 1.49872 25.1811 0 22.9518 0H3.68684C1.54371 0 0.0465298 1.50427 0.0294228 3.67912C0.0149078 5.50679 0.00968361 7.3336 0.0044632 9.16023C0.00303841 9.65845 0.00161362 10.1567 0 10.6549ZM25.24 20.5947H1.45065V11.3942H25.24V20.5947ZM1.43697 22.4114V22.0414L25.2571 22.0393V22.4086V28.2758C25.2537 29.6953 24.3963 30.57 22.9956 30.57H3.69916C2.30051 30.57 1.43697 29.6953 1.43697 28.2792V22.4114ZM25.2578 9.57196V9.92668H1.43697V9.57404V3.70758C1.43697 2.29424 2.30394 1.41195 3.69779 1.40917H22.9942C24.3894 1.40917 25.2578 2.29008 25.2578 3.7048V9.57196ZM12.6699 18.4852C12.8929 18.4838 13.116 18.4824 13.3391 18.4824C13.5629 18.4824 13.7867 18.4836 14.0104 18.4848H14.0109H14.0109C14.5171 18.4876 15.0231 18.4904 15.5288 18.4789C16.7215 18.4518 17.5214 17.6278 17.5426 16.4339C17.5508 15.9792 17.3024 15.6661 16.9097 15.6363C16.4929 15.6036 16.1953 15.882 16.1508 16.3457C16.0981 16.8962 15.9442 17.0544 15.3899 17.0544C14.0214 17.0614 12.6528 17.0614 11.2843 17.0544C10.7266 17.0517 10.5918 16.9101 10.5419 16.3395C10.5022 15.8869 10.2237 15.6078 9.82269 15.6238C9.42171 15.6397 9.15347 15.9459 9.148 16.3873C9.13294 17.5855 9.94586 18.4463 11.1495 18.4782C11.656 18.4917 12.1628 18.4885 12.6697 18.4852H12.6698H12.6699ZM13.3433 28.4264C13.1105 28.4264 12.8777 28.4284 12.6449 28.4304H12.6446C12.1248 28.4348 11.605 28.4393 11.0852 28.4215C9.93286 28.3813 9.16168 27.5573 9.14526 26.3897C9.13842 25.9225 9.39707 25.6032 9.8049 25.574C10.1977 25.5463 10.4987 25.8517 10.5391 26.3133C10.5856 26.8624 10.7444 27.0186 11.2959 27.0207C12.6517 27.0262 14.0072 27.0262 15.3625 27.0207C15.9318 27.0207 16.0933 26.861 16.1481 26.2953C16.1905 25.8587 16.4902 25.5629 16.8775 25.5831C17.2723 25.6032 17.5406 25.9163 17.5412 26.3578C17.5412 27.5379 16.7598 28.3827 15.5959 28.4215C15.0714 28.4396 14.5442 28.435 14.0162 28.4305C13.792 28.4285 13.5676 28.4266 13.3433 28.4264ZM12.6076 7.10132C12.8544 7.09962 13.1012 7.09792 13.348 7.09792C13.5913 7.09792 13.8345 7.09957 14.0777 7.10122C14.5748 7.10458 15.0716 7.10795 15.5664 7.09723C16.7379 7.06738 17.5454 6.2073 17.5412 5.02165C17.5392 4.57877 17.2662 4.26986 16.8734 4.25459C16.4806 4.23932 16.1905 4.52462 16.1481 4.9675C16.0981 5.51451 15.9394 5.68806 15.3954 5.68806C14.0168 5.70009 12.6385 5.70009 11.2603 5.68806C10.7341 5.68389 10.5877 5.51937 10.5412 4.97861C10.5015 4.50727 10.2114 4.22266 9.80285 4.24973C9.39433 4.2768 9.13979 4.59334 9.148 5.06469C9.16784 6.2427 9.96091 7.06877 11.1276 7.09792C11.6207 7.1081 12.1141 7.10471 12.6076 7.10132Z" fill="white"/>
</svg>
