<svg width="25" height="24" viewBox="0 0 25 24" fill="none" xmlns="http://www.w3.org/2000/svg">
<g clip-path="url(#clip0_48_139)">
<path d="M0.50002 0.801902V23.1981C0.499269 23.3037 0.519498 23.4083 0.55953 23.5059C0.599562 23.6035 0.6586 23.6922 0.733212 23.7668C0.807824 23.8414 0.896521 23.9005 0.994149 23.9405C1.09178 23.9805 1.19639 24.0008 1.3019 24H23.6981C23.8037 24.0008 23.9083 23.9805 24.0059 23.9405C24.1035 23.9005 24.1922 23.8414 24.2668 23.7668C24.3414 23.6922 24.4005 23.6035 24.4405 23.5059C24.4805 23.4083 24.5008 23.3037 24.5 23.1981V0.801902C24.5008 0.696388 24.4805 0.591777 24.4405 0.494149C24.4005 0.396521 24.3414 0.307824 24.2668 0.233212C24.1922 0.1586 24.1035 0.0995625 24.0059 0.0595301C23.9083 0.0194977 23.8037 -0.000730849 23.6981 2.01703e-05H1.3019C1.19639 -0.000730849 1.09178 0.0194977 0.994149 0.0595301C0.896521 0.0995625 0.807824 0.1586 0.733212 0.233212C0.6586 0.307824 0.599562 0.396521 0.55953 0.494149C0.519498 0.591777 0.499269 0.696388 0.50002 0.801902ZM9.23602 17.3026H6.9772V10.097H9.23602V17.3026ZM8.03884 9.19908C7.86751 9.20803 7.69616 9.18172 7.5354 9.12177C7.37464 9.06183 7.2279 8.96952 7.10426 8.85057C6.98062 8.73162 6.88271 8.58856 6.8166 8.43024C6.75048 8.27192 6.71757 8.10172 6.71989 7.93016C6.72222 7.75861 6.75973 7.58936 6.83011 7.43289C6.90049 7.27642 7.00223 7.13606 7.12905 7.0205C7.25587 6.90494 7.40505 6.81664 7.56737 6.76107C7.72969 6.7055 7.90169 6.68384 8.07273 6.69743C8.24921 6.67686 8.42805 6.69386 8.59749 6.74733C8.76693 6.8008 8.92314 6.88952 9.05586 7.00766C9.18857 7.1258 9.29478 7.27068 9.36751 7.4328C9.44024 7.59491 9.47783 7.77058 9.47783 7.94825C9.47783 8.12593 9.44024 8.3016 9.36751 8.46371C9.29478 8.62582 9.18857 8.77071 9.05586 8.88885C8.92314 9.00699 8.76693 9.09571 8.59749 9.14918C8.42805 9.20265 8.24921 9.21965 8.07273 9.19908H8.03884ZM18.3334 17.3026H15.7471V13.553C15.7471 12.576 15.3461 11.9097 14.4595 11.9097C14.1882 11.9102 13.9238 11.9954 13.7032 12.1533C13.4825 12.3112 13.3166 12.534 13.2285 12.7906C13.1766 12.9741 13.1575 13.1652 13.172 13.3553V17.2518H10.6252C10.6252 17.2518 10.6647 10.7294 10.6252 10.097H13.1777V11.2264C13.3301 10.7351 14.1433 10.0292 15.4365 10.0292C17.0515 10.0292 18.3221 11.0683 18.3221 13.2988L18.3334 17.3026Z" fill="#EF7962"/>
</g>
<defs>
<clipPath id="clip0_48_139">
<rect width="24" height="24" fill="white" transform="translate(0.5)"/>
</clipPath>
</defs>
</svg>
