<svg width="40" height="33" viewBox="0 0 40 33" fill="none" xmlns="http://www.w3.org/2000/svg">
<path fill-rule="evenodd" clip-rule="evenodd" d="M0 2.03566V29.9792C0.050704 30.0897 0.096385 30.2034 0.142044 30.317C0.236962 30.5532 0.331787 30.7891 0.471449 30.9962C0.908554 31.6355 1.55328 31.9485 2.32446 31.9977C2.44154 32.0047 2.55861 32.0038 2.67568 32.0029C2.71472 32.0026 2.75375 32.0023 2.79279 32.0023H37.0134C38.7463 32.0023 39.3473 31.5879 39.9639 29.9776V2.0341C39.9139 1.92566 39.8682 1.81415 39.8226 1.70261L39.8225 1.70253C39.7206 1.45362 39.6186 1.20454 39.4683 0.988951C39.0343 0.366076 38.3942 0.0655651 37.6387 0.0195141C37.523 0.0119972 37.4074 0.0130463 37.2917 0.0140953C37.2513 0.0144634 37.2108 0.0148296 37.1703 0.0148296C25.7634 0.030962 14.356 0.0260181 2.94812 0C1.5447 0 0.410566 0.489401 0 2.03566ZM2.69444 1.62431H23.1588V30.389H2.73971C1.8093 30.389 1.59621 30.1751 1.59621 29.2384V2.78264C1.58959 2.59986 1.60083 2.41686 1.62978 2.23626C1.69691 1.89516 1.92014 1.69222 2.26358 1.63914C2.40661 1.62313 2.55065 1.61818 2.69444 1.62431ZM37.2648 30.389H24.7979L24.8003 1.6251H37.2671C38.1413 1.6251 38.3661 1.85301 38.3661 2.74127V29.2736C38.3661 30.1595 38.139 30.389 37.2648 30.389ZM35.7568 9.60851H31.5418C30.1244 9.60747 28.7069 9.60565 27.2894 9.60304C26.6743 9.60382 26.3801 9.89185 26.3801 10.5093C26.3759 11.4979 26.3759 12.4866 26.3801 13.4753C26.3824 14.0896 26.6681 14.4018 27.2824 14.4018C30.1444 14.4107 33.0064 14.4107 35.8684 14.4018C36.4788 14.4003 36.7668 14.0865 36.7668 13.4714V10.6232C36.7652 9.8895 36.4889 9.60851 35.7568 9.60851ZM35.1417 12.7791H27.9857V11.2477H35.1417V12.7791ZM31.9805 5.63007C31.9793 5.1565 32.1186 4.69322 32.381 4.29895C32.6433 3.90468 33.0168 3.59718 33.4542 3.41541C33.8915 3.23365 34.3729 3.18581 34.8374 3.27795C35.3019 3.3701 35.7286 3.59808 36.0635 3.933C36.3983 4.26793 36.6261 4.69471 36.7181 5.15927C36.8101 5.62383 36.7621 6.10523 36.5802 6.54248C36.3983 6.97972 36.0907 7.35312 35.6963 7.61534C35.302 7.87757 34.8386 8.01681 34.3651 8.01542C33.7341 8.01011 33.1306 7.75707 32.6845 7.31086C32.2384 6.86464 31.9856 6.26099 31.9805 5.63007ZM34.3393 6.41062C34.4428 6.41596 34.5464 6.40063 34.644 6.36551C34.7415 6.33038 34.8311 6.27618 34.9074 6.20606C34.9838 6.13594 35.0455 6.05131 35.0888 5.9571C35.1321 5.8629 35.1562 5.76101 35.1596 5.65739C35.167 5.55392 35.1533 5.45004 35.1195 5.35197C35.0856 5.25391 35.0324 5.16369 34.9628 5.08672C34.8933 5.00975 34.8089 4.94761 34.7148 4.90404C34.6207 4.86046 34.5187 4.83635 34.415 4.83313C33.9467 4.81128 33.5806 5.14145 33.5697 5.59963C33.5655 5.80857 33.644 6.01071 33.7882 6.16202C33.9323 6.31334 34.1304 6.40156 34.3393 6.40749V6.41062ZM30.4676 7.3041C30.9109 6.85544 31.1601 6.25061 31.1617 5.61992L31.1633 5.61368C31.169 5.29613 31.1114 4.98062 30.9939 4.68558C30.8763 4.39053 30.7011 4.12186 30.4786 3.89527C30.2561 3.66867 29.9906 3.48868 29.6977 3.36582C29.4049 3.24295 29.0904 3.17967 28.7728 3.17967C28.4552 3.17967 28.1408 3.24295 27.8479 3.36582C27.5551 3.48868 27.2896 3.66867 27.0671 3.89527C26.8445 4.12186 26.6694 4.39053 26.5518 4.68558C26.4343 4.98062 26.3767 5.29613 26.3824 5.61368C26.3824 6.9328 27.4799 8.02947 28.792 8.01854C29.4226 8.00933 30.0243 7.75275 30.4676 7.3041ZM28.4847 4.88123C28.5819 4.8449 28.6852 4.82829 28.7888 4.83235V4.82845C28.893 4.82791 28.9962 4.84822 29.0924 4.88819C29.1886 4.92815 29.2758 4.98697 29.3489 5.06116C29.422 5.13535 29.4795 5.22343 29.5181 5.3202C29.5566 5.41697 29.5754 5.52047 29.5733 5.62461C29.5714 5.72936 29.5489 5.83272 29.507 5.92878C29.4652 6.02484 29.4048 6.11171 29.3294 6.18445C29.254 6.25718 29.165 6.31435 29.0675 6.35269C28.97 6.39102 28.8659 6.40978 28.7611 6.40788C28.6564 6.40599 28.553 6.38348 28.457 6.34163C28.3609 6.29979 28.274 6.23944 28.2013 6.16403C28.1286 6.08861 28.0714 5.99961 28.0331 5.9021C27.9947 5.80459 27.976 5.70049 27.9779 5.59573C27.9801 5.49207 28.0029 5.38988 28.045 5.29514C28.0871 5.2004 28.1477 5.115 28.2232 5.04394C28.2987 4.97287 28.3876 4.91756 28.4847 4.88123Z" fill="white"/>
</svg>
