<svg width="124" height="45" viewBox="0 0 124 45" fill="none" xmlns="http://www.w3.org/2000/svg">
<path d="M118.547 16.0099C116.815 14.5071 114.773 13.4045 112.566 12.7805L113.362 8.08966C113.415 7.68141 113.615 7.57934 113.962 7.59567L115.342 7.65283C115.496 7.65871 115.649 7.63251 115.792 7.5759C115.935 7.51929 116.065 7.43352 116.173 7.32404C116.28 7.21456 116.364 7.08379 116.419 6.94007C116.474 6.79635 116.498 6.64282 116.49 6.4893C116.483 6.1844 116.363 5.89282 116.154 5.67159C115.944 5.45036 115.659 5.3154 115.355 5.2931L114.097 5.24411C113.344 5.21277 112.607 5.46578 112.032 5.95289C111.458 6.43999 111.087 7.12553 110.994 7.87329L109.872 12.2498C108.641 12.1232 107.4 12.1396 106.173 12.2988L103.164 5.76668C103.128 5.69785 103.106 5.62245 103.1 5.54501C103.094 5.46756 103.104 5.38969 103.129 5.31607C103.153 5.24245 103.193 5.17461 103.244 5.11664C103.296 5.05867 103.359 5.01176 103.429 4.97874L104.899 4.23163C105.053 4.15233 105.189 4.04126 105.296 3.90577C105.404 3.77027 105.482 3.61343 105.525 3.44559C105.568 3.27776 105.575 3.10275 105.545 2.93211C105.515 2.76148 105.449 2.59911 105.352 2.45571C105.167 2.15447 104.876 1.93314 104.536 1.83499C104.197 1.73684 103.832 1.76893 103.515 1.92498L102.221 2.60677C102.09 2.66424 101.965 2.73252 101.845 2.8109C101.319 3.16705 100.915 3.67762 100.69 4.27246C100.383 5.09011 100.393 5.99314 100.719 6.80365L103.107 13.0051C99.8124 14.1284 96.9812 16.3085 95.0533 19.2066C93.1253 22.1046 92.2087 25.5584 92.4457 29.031C92.6828 32.5037 94.0602 35.8009 96.3641 38.4101C98.6679 41.0193 101.769 42.7944 105.186 43.4597C108.602 44.1249 112.143 43.643 115.257 42.0888C118.372 40.5346 120.886 37.9951 122.408 34.8651C123.931 31.735 124.377 28.1897 123.678 24.78C122.978 21.3703 121.171 18.2872 118.539 16.0099H118.547ZM119.845 36.1165V36.1778C118.894 39.7337 112.791 41.7954 109.753 40.738C106.716 39.6806 103.719 35.7613 104.671 32.2177V32.1564C105.618 28.6087 111.011 33.0383 113.954 34.3324C118.176 36.1818 120.784 32.5728 119.845 36.1165Z" fill="#7E3C8F"/>
<path d="M28.2035 10.9944C28.3533 13.6128 26.3347 15.4903 23.7166 15.6442L21.2508 16.0668C21.0306 16.1053 20.8316 16.2215 20.6897 16.3942C20.5479 16.5669 20.4726 16.7847 20.4774 17.0081L21.1235 37.1335C21.3102 40.3677 19.4011 43.1124 16.1633 43.3035C12.9255 43.4946 10.7116 40.9907 10.5205 37.7529L8.81921 17.7874C8.79895 17.5455 8.685 17.3211 8.50166 17.162C8.31832 17.0029 8.08009 16.9218 7.83776 16.9358L5.56639 17.0697C4.93001 17.1115 4.29163 17.0271 3.68799 16.8213C3.08435 16.6155 2.52735 16.2924 2.04903 15.8706C1.57072 15.4488 1.18053 14.9365 0.900915 14.3633C0.621299 13.7901 0.457774 13.1673 0.419747 12.5307C0.370917 11.2892 0.810702 10.0779 1.64473 9.15697C2.47876 8.236 3.64057 7.67865 4.88085 7.60453L23.2061 6.91309C25.8234 6.75111 28.0496 8.3764 28.2035 10.9944Z" fill="#EF7962"/>
<path d="M40.0357 38.5644C39.999 41.5038 37.3535 43.8717 34.1201 43.8146C30.8867 43.7574 28.3024 41.365 28.3392 38.4174L29.7313 16.1062C29.7681 13.1667 31.299 10.7988 34.5283 10.8396C37.7577 10.8805 39.6071 13.2892 39.5703 16.2286L40.0357 38.5644Z" fill="#EF7962"/>
<path d="M34.5321 0.000425639C33.6639 -0.0116692 32.8117 0.234244 32.0835 0.706998C31.3553 1.17975 30.7838 1.85806 30.4415 2.65596C30.0992 3.45386 30.0014 4.33542 30.1607 5.18892C30.3199 6.04242 30.729 6.82942 31.336 7.45019C31.943 8.07096 32.7207 8.49754 33.5704 8.67588C34.4201 8.85421 35.3036 8.77626 36.109 8.45192C36.9144 8.12757 37.6053 7.57143 38.0943 6.85397C38.5832 6.13652 38.8482 5.29005 38.8555 4.42185C38.8653 3.26315 38.4161 2.14766 37.606 1.31918C36.7958 0.490689 35.6907 0.0165676 34.5321 0.000425639Z" fill="#EF7962"/>
<path d="M97.9536 20.6909C97.956 17.7971 97.1577 14.9591 95.6469 12.491C94.1362 10.0229 91.9719 8.02092 89.3938 6.70676C86.8156 5.39259 83.9241 4.81746 81.0392 5.04503C78.1544 5.2726 75.3888 6.29399 73.0486 7.99614C70.7084 9.6983 68.8848 12.0148 67.7797 14.6893C66.6746 17.3638 66.3312 20.2919 66.7873 23.1495C67.2434 26.0071 68.4814 28.6827 70.3642 30.8802C72.247 33.0778 74.7011 34.7115 77.455 35.6005L77.1447 40.5812C77.1402 40.6559 77.1205 40.7289 77.0869 40.7957C77.0532 40.8626 77.0064 40.9219 76.9491 40.97C76.8918 41.0181 76.8253 41.0541 76.7536 41.0757C76.682 41.0973 76.6067 41.1041 76.5323 41.0956H75.0748C74.9183 41.0912 74.7625 41.1197 74.6176 41.1791C74.4726 41.2386 74.3417 41.3277 74.2333 41.4407C74.1249 41.5538 74.0413 41.6882 73.988 41.8355C73.9346 41.9828 73.9127 42.1396 73.9236 42.2959C73.9551 42.6062 74.1017 42.8935 74.3344 43.1013C74.5671 43.309 74.8691 43.4222 75.181 43.4186H76.5119C77.2816 43.4369 78.0303 43.1669 78.6112 42.6616C79.192 42.1563 79.563 41.4521 79.6514 40.6873L80.2515 36.221C80.9281 36.314 81.6099 36.3631 82.2928 36.368C82.9291 36.3638 83.5645 36.3202 84.1953 36.2373L84.8404 41.3365C84.936 42.1207 85.3291 42.8383 85.9386 43.341C86.4037 43.7245 86.9719 43.9617 87.5716 44.0228C87.7074 44.035 87.844 44.035 87.9799 44.0228H89.3761C89.6934 44.0241 90.0001 43.9088 90.2379 43.6988C90.4757 43.4888 90.6282 43.1988 90.6662 42.8838C90.6802 42.7246 90.6602 42.5643 90.6075 42.4135C90.5548 42.2627 90.4707 42.1248 90.3607 42.009C90.2506 41.8931 90.1172 41.802 89.9693 41.7417C89.8214 41.6814 89.6623 41.6532 89.5027 41.659H87.939C87.8677 41.6629 87.7963 41.6526 87.729 41.6288C87.6616 41.605 87.5996 41.5682 87.5465 41.5204C87.4934 41.4726 87.4503 41.4148 87.4195 41.3503C87.3888 41.2859 87.3711 41.2159 87.3675 41.1446L87.0368 35.6005C90.1994 34.5893 92.9599 32.6012 94.9215 29.9222C96.8831 27.2432 97.9446 24.0113 97.9536 20.6909ZM82.746 34.1144C78.9002 34.4614 73.4173 31.473 73.1234 27.5251V27.4843C72.8376 23.5773 78.0796 26.0513 81.9213 25.7451C85.763 25.4389 90.4253 22.6628 90.7111 26.5616V26.6025C91.005 30.5136 86.5836 33.8164 82.746 34.1144Z" fill="#7E3C8F"/>
<path d="M70.1676 29.1254C70.3314 30.7268 70.1778 32.3447 69.7158 33.8866C69.2538 35.4286 68.4924 36.8644 67.4751 38.1118C66.4578 39.3593 65.2045 40.394 63.7871 41.1567C62.3696 41.9195 60.8156 42.3954 59.2141 42.5571L51.2775 43.3736C50.5072 43.452 49.729 43.3777 48.9874 43.155C48.2459 42.9322 47.5555 42.5653 46.956 42.0753C46.3564 41.5854 45.8594 40.9819 45.4934 40.2996C45.1274 39.6173 44.8996 38.8694 44.823 38.0989L42.3204 13.481C42.1642 11.9257 42.6321 10.372 43.6213 9.16159C44.6104 7.95119 46.0398 7.18319 47.5951 7.02647L55.0866 6.26711C57.1167 6.06224 59.1653 6.38331 61.0354 7.19941C62.9054 8.01552 64.534 9.29919 65.7643 10.9269C66.9946 12.5546 67.7853 14.4716 68.0603 16.4934C68.3352 18.5152 68.0852 20.5737 67.3343 22.4708C68.9313 24.3507 69.9194 26.6714 70.1676 29.1254ZM57.875 17.1717C57.8194 16.6337 57.5525 16.1398 57.133 15.7984C56.7136 15.457 56.1758 15.2961 55.6377 15.3508L54.5354 15.4447C54.2922 15.4745 54.0703 15.5985 53.9176 15.7901C53.7649 15.9818 53.6936 16.2257 53.7189 16.4695L53.9435 18.6659C53.9623 18.9126 54.0781 19.1418 54.2656 19.3033C54.4531 19.4648 54.6969 19.5453 54.9437 19.5273L56.0378 19.4171C56.3064 19.3916 56.5673 19.3131 56.8053 19.1862C57.0434 19.0592 57.2539 18.8864 57.4247 18.6776C57.5956 18.4688 57.7233 18.2282 57.8006 17.9697C57.8779 17.7112 57.9032 17.44 57.875 17.1717ZM59.3365 31.5423C59.2593 31.0054 58.9763 30.5195 58.5474 30.1873C58.1185 29.8552 57.5773 29.7028 57.0381 29.7623L56.0052 29.8685C55.7619 29.8982 55.5401 30.0222 55.3874 30.2139C55.2347 30.4055 55.1633 30.6495 55.1886 30.8932L55.4091 33.0896C55.4378 33.3333 55.5616 33.5558 55.7535 33.7087C55.9454 33.8616 56.1899 33.9326 56.4338 33.9061L57.5157 33.8163C57.7855 33.789 58.0472 33.7081 58.2854 33.5785C58.5237 33.4488 58.7337 33.273 58.9032 33.0613C59.0727 32.8496 59.1984 32.6062 59.2728 32.3454C59.3472 32.0846 59.3688 31.8116 59.3365 31.5423Z" fill="#7E3C8F"/>
</svg>
