<svg width="37" height="32" viewBox="0 0 37 32" fill="none" xmlns="http://www.w3.org/2000/svg">
<path fill-rule="evenodd" clip-rule="evenodd" d="M24.7446 0.000172093C22.1559 -0.0422168 20.0691 1.96122 20.0312 4.52539C19.9955 6.99734 22.0354 9.10043 24.5103 9.14133C25.7252 9.15922 26.8975 8.69405 27.7696 7.84803C28.6417 7.00202 29.1422 5.84438 29.1612 4.6295C29.1932 2.14193 27.189 0.0410733 24.7446 0.000172093ZM26.2793 7.09901C25.778 7.43174 25.1893 7.60831 24.5877 7.6064C24.1879 7.6068 23.7921 7.52808 23.423 7.37479C23.0538 7.22149 22.7186 6.99664 22.4368 6.71321C22.155 6.42977 21.932 6.09336 21.7808 5.72335C21.6296 5.35335 21.5531 4.95707 21.5557 4.55737C21.5572 3.9557 21.7371 3.36799 22.0726 2.86857C22.4082 2.36916 22.8843 1.98048 23.4407 1.75169C23.9972 1.52291 24.609 1.4643 25.1988 1.58329C25.7886 1.70227 26.3298 1.9935 26.7541 2.42014C27.1783 2.84678 27.4665 3.38965 27.5822 3.9801C27.6978 4.57054 27.6358 5.18202 27.4039 5.73719C27.172 6.29237 26.7806 6.76629 26.2793 7.09901ZM16.9807 4.61091C16.9658 5.82683 16.4693 6.98722 15.6001 7.83761C14.7309 8.688 13.5599 9.15899 12.3439 9.14728C9.84966 9.11233 7.82094 7.02039 7.85068 4.50903C7.88117 1.96866 9.9627 -0.0332933 12.5358 0.000915959C14.981 0.0328927 17.0171 2.14863 16.9807 4.61091ZM12.4242 7.60789C13.0256 7.6042 13.6124 7.42232 14.1105 7.08521C14.6085 6.74811 14.9955 6.27092 15.2224 5.71397C15.4493 5.15701 15.506 4.54528 15.3854 3.9561C15.2647 3.36692 14.9721 2.82673 14.5445 2.40382C14.1169 1.9809 13.5735 1.69424 12.9831 1.58006C12.3926 1.46589 11.7815 1.52932 11.2271 1.76235C10.6727 1.99537 10.1998 2.38753 9.86815 2.88926C9.53654 3.39099 9.36112 3.97976 9.36404 4.58116C9.36332 4.9816 9.44224 5.37818 9.5962 5.74783C9.75017 6.11749 9.97611 6.45283 10.2609 6.73435C10.5457 7.01587 10.8836 7.23795 11.255 7.38766C11.6264 7.53737 12.0238 7.61173 12.4242 7.6064V7.60789ZM15.9199 22.5085L15.9203 22.5082C15.976 22.4739 16.0342 22.4379 16.0965 22.3987C16.3367 23.3893 16.5672 24.3374 16.7977 25.2849C17.3143 27.4271 17.8354 29.5669 18.3609 31.7042C18.3877 31.8113 18.5007 31.9741 18.5751 31.9786C18.9192 31.998 19.264 31.9955 19.614 31.993H19.6144C19.7341 31.9921 19.8544 31.9912 19.9754 31.9912C19.97 31.9559 19.9663 31.9285 19.9632 31.9061V31.9061L19.959 31.8755C19.9565 31.858 19.9541 31.8437 19.9509 31.8299C19.1621 28.5701 18.3711 25.3106 17.5779 22.0514L17.5712 22.0243C17.4392 21.4826 17.4336 21.4597 17.9356 21.159C18.877 20.596 19.3351 19.7929 19.2608 18.6893C19.2546 18.5739 19.2574 18.4585 19.2602 18.3431C19.2628 18.2354 19.2654 18.1277 19.2608 18.02C19.249 17.7557 19.2468 17.4894 19.2446 17.2231C19.2397 16.6176 19.2348 16.0118 19.1165 15.4298C18.1282 10.5684 12.6949 8.35974 8.55196 11.089C8.48373 11.1274 8.40807 11.1507 8.33008 11.1573C8.25208 11.164 8.17357 11.1539 8.09981 11.1277C6.97985 10.616 5.83162 10.5238 4.65886 10.8837C0.915241 12.032 -0.234468 16.6955 2.5171 19.1994C3.44317 20.043 4.32107 20.9395 5.19908 21.8361C5.67481 22.3219 6.15057 22.8077 6.63404 23.2851C6.82814 23.4763 6.86904 23.6443 6.80434 23.9031C6.31352 25.8724 5.83386 27.8453 5.35791 29.8175C5.24001 30.2971 5.1258 30.779 5.00965 31.2692L5.00955 31.2696C4.95283 31.509 4.89565 31.7503 4.83734 31.9942C4.97274 31.9942 5.1035 31.9931 5.23099 31.9921L5.232 31.9921H5.23223C5.52509 31.9896 5.80068 31.9873 6.07555 31.9987C6.31055 32.0091 6.41689 31.9466 6.4749 31.6945C6.6786 30.8082 6.89553 29.9254 7.11245 29.0428L7.11247 29.0427C7.19093 28.7234 7.26939 28.4042 7.34722 28.0848C7.62733 26.9341 7.90794 25.7819 8.18905 24.6282C8.2355 24.6287 8.28171 24.6349 8.32663 24.6468C9.96716 25.415 11.5556 25.2544 13.0787 24.3374C13.6882 23.9703 14.2827 23.5781 14.8772 23.1858L14.8773 23.1857L14.8775 23.1857C15.1512 23.0051 15.4249 22.8245 15.7001 22.6463C15.7709 22.6006 15.8429 22.5561 15.9199 22.5085ZM9.69349 12.3681C9.66143 12.3316 9.63234 12.2925 9.60648 12.2513C11.6597 10.8652 15.0836 11.1262 16.8721 13.8324C17.4291 14.6738 17.7324 15.6576 17.7459 16.6665C17.7555 17.1098 17.7539 17.5533 17.7522 17.9967C17.751 18.3092 17.7498 18.6216 17.7526 18.9339C17.759 19.0954 17.7218 19.2557 17.6449 19.3978C17.5679 19.5399 17.4541 19.6587 17.3153 19.7416C16.6292 20.1963 15.9442 20.6529 15.2591 21.1094L15.2581 21.1101L15.2565 21.1112C14.4693 21.6359 13.682 22.1606 12.8927 22.6828C12.4882 22.9512 12.0546 22.8843 11.804 22.54C11.54 22.1793 11.6226 21.7547 12.016 21.4356C13.0378 20.6112 14.0573 19.784 15.0747 18.954C15.6034 18.5242 15.5982 18.0787 15.1156 17.6154C13.307 15.8678 11.4996 14.1187 9.69349 12.3681ZM10.6364 23.5376L10.6588 23.5744C9.77529 23.6614 9.00337 23.4658 8.40323 22.8761C6.66528 21.1783 4.93774 19.4686 3.25036 17.721C2.5 16.9439 2.37729 15.957 2.64873 14.8415C3.6274 16.8137 5.17125 17.6942 7.28252 17.46C8.69177 17.3038 9.49493 16.5401 10.1256 14.9122L13.5464 18.2245C13.502 18.2616 13.4593 18.2976 13.4176 18.3327L13.4146 18.3353L13.4143 18.3355L13.4139 18.3359L13.4137 18.3361C13.3207 18.4144 13.2329 18.4884 13.1434 18.5606L12.8915 18.7661L12.8909 18.7666L12.8906 18.7668C12.2731 19.2708 11.6559 19.7744 11.0336 20.2711C10.0445 21.0616 9.84594 22.3712 10.5651 23.4257C10.5858 23.4543 10.605 23.486 10.6362 23.5374L10.6363 23.5375L10.6364 23.5376ZM7.01262 15.9652L7.01255 15.9652C6.93803 15.9821 6.87097 15.9973 6.8155 16.0128C5.74239 15.9541 4.95112 15.6254 4.40007 14.8549C3.63111 13.7811 4.12863 12.5369 5.42038 12.2625C6.6333 12.0044 7.94662 12.6091 8.42851 13.6502C8.82563 14.5091 8.53114 15.3718 7.67146 15.7644C7.4493 15.8664 7.20584 15.9215 7.01262 15.9652ZM31.7985 31.9967C31.9191 31.9955 32.0407 31.9942 32.1634 31.9942C32.1572 31.96 32.1516 31.9277 32.1463 31.8969L32.146 31.8953L32.1459 31.8947C32.1293 31.7977 32.1152 31.7155 32.0905 31.6358L31.7353 30.1753C31.2281 28.0887 30.7207 26.0017 30.2046 23.9173C30.1369 23.6414 30.1867 23.4703 30.3898 23.2695C31.2953 22.3762 32.1944 21.476 33.0935 20.5757L33.0942 20.5749C33.6139 20.0545 34.1337 19.5341 34.6547 19.015C35.5002 18.1724 35.9427 17.1558 36.0059 15.966C36.2037 12.2677 32.2571 9.57786 28.9158 11.1254C28.8427 11.1538 28.7644 11.1661 28.6862 11.1616C28.6079 11.1572 28.5315 11.1359 28.4622 11.0994C26.9823 10.1274 25.3715 9.72511 23.6164 9.9787C21.9595 10.2189 20.5838 10.9856 19.4683 12.2268L20.2238 13.6836C22.3091 10.9492 25.5544 11.0131 27.5051 12.3242C27.4621 12.35 27.4196 12.3732 27.3785 12.3956C27.2857 12.446 27.2002 12.4926 27.1332 12.557C25.4035 14.2273 23.6752 15.8995 21.9484 17.5738C21.3825 18.1263 21.3981 18.5257 22.0049 19.0187C22.382 19.3252 22.7596 19.6306 23.1372 19.9361L23.1376 19.9364C23.7613 20.4409 24.3851 20.9455 25.0071 21.455C25.3856 21.7629 25.4577 22.1912 25.2071 22.5355C24.9565 22.8798 24.5274 22.9408 24.1147 22.6887C24.0696 22.6612 24.0268 22.6321 23.9834 22.6027C23.9552 22.5835 23.9268 22.5642 23.8975 22.5452C22.8985 21.8779 21.8986 21.2115 20.8976 20.5462C20.8296 20.4997 20.7569 20.4576 20.6869 20.4171C20.6573 20.3999 20.6282 20.383 20.6001 20.3662L19.7999 21.69C20.2533 21.9774 20.7042 22.2696 21.1553 22.5619C22.2087 23.2444 23.263 23.9275 24.3512 24.5523C25.6965 25.3213 27.1399 25.3265 28.5715 24.7011C28.62 24.68 28.6711 24.6651 28.7267 24.6488C28.7555 24.6404 28.7855 24.6316 28.8169 24.6215L28.8789 24.8708C28.9429 25.1279 29.004 25.3733 29.0638 25.6188C29.2125 26.2255 29.3607 26.8323 29.5089 27.439L29.509 27.4395C29.8542 28.8532 30.1994 30.2666 30.5511 31.6782C30.5809 31.7979 30.717 31.9727 30.8136 31.9801C31.1385 32.0036 31.465 32.0002 31.7984 31.9967H31.7985ZM28.6369 22.8672C27.9951 23.4257 27.2515 23.6488 26.342 23.5819C26.8462 22.9051 27.0068 22.2068 26.7919 21.4401C26.662 20.9841 26.3884 20.5822 26.0118 20.2941C25.4227 19.8237 24.839 19.3484 24.255 18.8728C24.0227 18.6836 23.7904 18.4945 23.5577 18.3055C23.5304 18.2767 23.5055 18.2456 23.4833 18.2126L26.8848 14.9196C26.929 15.028 26.9679 15.1331 27.0055 15.2348C27.082 15.4414 27.1533 15.6341 27.253 15.812C27.8196 16.8361 28.7329 17.3611 29.867 17.4778C31.805 17.6771 33.3875 16.7714 34.2546 15.02C34.2663 14.9925 34.2829 14.9668 34.3017 14.9376C34.3104 14.9241 34.3196 14.9098 34.329 14.8943C34.7276 15.7964 34.4219 17.0882 33.6076 17.9062C32.0147 19.5011 30.421 21.0958 28.8266 22.6902C28.7656 22.7512 28.7016 22.8107 28.6369 22.8672ZM28.6243 13.5639C29.0467 12.7511 30.0246 12.1933 31.0271 12.1733H31.0293C31.2738 12.2021 31.5165 12.2438 31.7566 12.2982C32.8171 12.5905 33.2655 13.645 32.7554 14.6222C32.176 15.731 30.6047 16.3036 29.449 15.8269C28.4927 15.4328 28.1468 14.4831 28.6243 13.5639Z" fill="white"/>
</svg>
