<svg width="69" height="52" viewBox="0 0 69 52" fill="none" xmlns="http://www.w3.org/2000/svg">
<path id="Vector" d="M5.76932 49.4737L10.5941 48.075C13.0536 47.3638 15.5878 46.6291 17.0808 46.189C17.2817 46.1281 17.4785 46.0546 17.6702 45.969L20.2633 44.7668C25.1562 42.4984 30.0478 40.2275 34.938 37.9539C35.3525 37.7604 35.7179 37.4756 36.0067 37.121C39.9671 32.2844 43.1928 28.3201 46.1592 24.6386C46.3314 24.4074 46.4506 24.1411 46.5083 23.8586C46.566 23.5761 46.5608 23.2844 46.4932 23.0042C45.7912 20.5368 45.0774 18.072 44.3519 15.6098C43.8293 13.8104 43.3028 12.007 42.7803 10.2075C42.7084 9.88673 42.5289 9.60028 42.2715 9.39582C42.0142 9.19136 41.6945 9.08124 41.3658 9.08379C40.7018 9.03664 40.0261 8.96985 39.3699 8.90306L38.4466 8.81269L30.5258 8.06619L30.9187 9.21738C30.9501 9.30643 30.9776 9.38894 31.0012 9.4649C31.0536 9.65192 31.1206 9.83453 31.2016 10.011C31.7257 11.1643 32.5323 12.1668 33.5466 12.9257C34.561 13.6845 35.7503 14.1753 37.0047 14.3525L37.2719 14.3997C37.7033 14.4806 38.1387 14.5383 38.5763 14.5726L38.6038 14.6551C39.2599 16.9771 39.8807 19.0988 40.4975 21.1379C40.5014 21.16 40.5014 21.1826 40.4975 21.2047C40.4737 21.2368 40.4474 21.267 40.419 21.295C36.9732 24.5797 33.8851 27.55 30.9894 30.3671L30.8283 30.2531C28.2154 28.2328 25.4369 26.4362 22.5225 24.8822C22.4494 24.8444 22.3786 24.8024 22.3103 24.7565L22.3339 24.7054C24.2984 19.8688 25.87 15.8495 27.3708 12.0462C27.6806 11.2495 27.8712 10.4115 27.9366 9.5592C28.1331 7.00536 26.5065 4.42403 24.9191 3.70502L24.1334 3.35535L21.1748 11.3587C19.9428 14.8241 17.4323 17.6874 14.1577 19.362C11.49 20.7118 9.40685 22.9891 8.29958 25.7662C8.06777 26.3359 7.81239 26.9174 7.56093 27.4793C7.30948 28.0411 7.01088 28.7287 6.75156 29.3691C6.69263 29.5105 6.66905 29.5498 6.45689 29.6088C6.12686 29.6952 5.2782 29.9074 4.26452 30.1549L1.47495 30.8542C1.37984 30.8778 1.2822 30.8897 1.1842 30.8896C0.895744 30.8958 0.615027 30.796 0.395237 30.6091C0.175448 30.4221 0.0318534 30.1611 -0.00834031 29.8754C-0.048534 29.5897 0.017465 29.2991 0.177152 29.0588C0.33684 28.8185 0.579123 28.6451 0.8581 28.5715C2.00929 28.2415 2.97189 27.9547 3.9502 27.6482C4.45848 27.4717 4.88013 27.1077 5.1289 26.6306C5.39607 26.1002 5.63181 25.558 5.85576 25.0315C5.98934 24.7172 6.12293 24.4029 6.24865 24.0925C7.59418 21.1007 9.92553 18.6612 12.8533 17.1814C15.6105 15.7519 17.7316 13.3406 18.7978 10.4236C19.725 7.89855 20.6575 5.37484 21.5952 2.85244L22.6521 0L22.8407 0.0432187C23.428 0.168913 24.0067 0.331636 24.5734 0.530412C26.5472 1.27989 28.1931 2.70185 29.2214 4.54583C29.3671 4.82242 29.5827 5.05608 29.8466 5.22357C30.1106 5.39106 30.4139 5.48655 30.7262 5.50057C33.8694 5.78738 37.0793 6.09384 40.1793 6.39244L42.3402 6.60068C43.9118 6.75391 44.5915 7.31575 45.0394 8.83627C45.4088 10.0818 45.7702 11.3312 46.1356 12.5806L47.1021 15.8927L51.424 13.7043L52.6224 13.0835C53.4082 12.6631 54.245 12.2309 55.0701 11.8616C56.3493 11.2769 57.738 10.9702 59.1445 10.9618C62.7002 10.9618 65.8473 13.0088 67.5682 16.4624L67.9375 17.2089L63.4035 19.5349L64.5586 20.2696C66.2795 21.3697 67.4778 22.9059 68.4876 25.338L67.8157 25.6484L64.8847 27.0078L48.9802 34.3235C43.4796 36.8538 37.9869 39.3854 32.5021 41.9182L25.3906 45.2029L18.6564 48.3264C18.1537 48.5508 17.6381 48.745 17.1123 48.9079C13.5762 49.9556 10.0401 50.9889 6.50404 52.0079L5.76932 49.4737ZM59.4431 21.299C58.6134 21.2923 57.7916 21.4596 57.0307 21.7901C55.9856 22.2537 54.9326 22.7409 53.915 23.2124C52.6459 23.8017 51.3337 24.3911 50.0292 24.9686C49.0912 25.3751 48.2777 26.0232 47.6719 26.8467C47.11 27.5696 46.4932 28.2965 45.9392 28.9958C45.6681 29.3259 45.397 29.652 45.1298 29.982L43.6957 31.7501L42.8392 32.8345L43.2753 33.4395L43.6682 33.9621L65.0419 24.1396L64.2993 23.3538C63.6716 22.6997 62.9174 22.1802 62.0825 21.8269C61.2477 21.4736 60.3496 21.294 59.4431 21.299ZM25.481 23.7428L30.679 27.1099L35.712 22.2773C37.5429 20.521 37.6372 20.1792 36.8515 17.81C36.819 17.6341 36.7356 17.4716 36.6118 17.3425C36.5876 17.318 36.5653 17.2917 36.545 17.2639C36.3667 17.0154 36.1111 16.833 35.8181 16.7453C33.8462 16.2648 32.0549 15.2252 30.6594 13.7514L29.8029 12.887L25.481 23.7428ZM59.113 13.4764C58.2763 13.4818 57.4498 13.6597 56.6849 13.9989C54.7204 14.8555 52.7795 15.8573 50.9093 16.8278C50.1235 17.2482 49.2984 17.6647 48.4891 18.0694L47.9037 18.364L49.1256 22.5798L51.0901 21.684L53.6007 20.5368L54.4179 20.1439C55.6595 19.5584 56.8342 19.0084 58.1308 18.8394C58.7224 18.7888 59.3041 18.6565 59.8595 18.4465C60.5471 18.1519 61.2111 17.8022 61.8515 17.4643L62.488 17.1343C62.708 17.0203 62.9241 16.8985 63.1599 16.7414L63.5017 16.5488L64.5114 15.9831L63.6117 15.2523C62.1462 14.0775 60.6335 13.4764 59.113 13.4764Z" fill="white"/>
</svg>
