<svg width="40" height="52" viewBox="0 0 40 52" fill="none" xmlns="http://www.w3.org/2000/svg">
<path fill-rule="evenodd" clip-rule="evenodd" d="M18.3041 7.45349C18.3 8.17264 17.8716 8.64212 17.2489 8.62584C16.6456 8.61091 16.2475 8.15635 16.2448 7.45484V1.17245C16.2475 0.451947 16.6966 -0.0148222 17.2999 0.000103578C17.9033 0.0150293 18.3041 0.470944 18.3041 1.1711V2.74237V4.31229V5.88357V7.45349ZM36.3479 30.3211C36.4232 30.3496 36.5 30.374 36.5779 30.3943C40.1718 31.1325 40.8592 35.2968 38.5849 37.5058C37.3068 38.7455 36.0482 40.0039 34.7896 41.2625L34.7879 41.2641C34.1901 41.8619 33.5923 42.4597 32.9923 43.0555C32.3675 43.6757 31.7409 44.2943 31.1142 44.9128C29.8107 46.1995 28.5072 47.4862 27.2206 48.7883C25.4918 50.5387 23.4394 51.6228 20.9695 51.9214C20.9047 51.9392 20.8426 51.9657 20.785 52.0001H18.7187C18.5155 51.9557 18.3113 51.9149 18.107 51.8741L18.1068 51.8741C17.6744 51.7878 17.242 51.7015 16.8191 51.5808C15.2225 51.1422 13.7647 50.3122 12.582 49.1682C12.3458 48.9381 12.1094 48.7081 11.873 48.4782C10.3364 46.9836 8.79992 45.4891 7.3172 43.9415C5.87772 42.4299 5.00301 40.5981 4.63797 38.5479C4.58562 38.2956 4.63538 38.0331 4.77664 37.8164C4.91791 37.5996 5.13951 37.4458 5.39422 37.3877C5.90113 37.2575 6.47693 37.5913 6.64223 38.1191C6.70283 38.3196 6.75962 38.5218 6.81646 38.7242L6.81648 38.7243L6.8165 38.7243C6.94699 39.189 7.07771 39.6545 7.25521 40.1015C7.69207 41.174 8.34855 42.1462 9.1837 42.9578C9.46641 43.2382 9.74893 43.5189 10.0315 43.7996L10.0372 43.8053L10.0377 43.8058C11.3018 45.0617 12.5661 46.3178 13.8479 47.5549C17.2241 50.8155 22.3057 50.7775 25.6268 47.4816C29.4223 43.704 33.2228 39.9314 37.0284 36.1638C37.5986 35.6007 37.8989 34.9576 37.8245 34.1611C37.7958 33.8307 37.6824 33.513 37.4952 33.2376C37.3079 32.9621 37.0527 32.7379 36.7536 32.586C36.4545 32.4341 36.1211 32.3593 35.7847 32.3688C35.4482 32.3782 35.1197 32.4715 34.8299 32.64C34.6739 32.7295 34.5297 32.8383 34.3853 32.9474C34.2975 33.0137 34.2097 33.08 34.1191 33.142C33.9193 33.2925 33.6708 33.3663 33.4198 33.3496C33.1689 33.3329 32.9327 33.2268 32.7554 33.0511C32.5708 32.8686 32.4656 32.6224 32.4623 32.3647C32.459 32.1071 32.5577 31.8583 32.7375 31.6712C32.9409 31.4439 33.1596 31.2302 33.3783 31.0164L33.3784 31.0163C33.5136 30.8842 33.6487 30.7521 33.7802 30.6169C34.542 29.8339 34.637 28.7864 34.0227 27.9886C33.4248 27.207 32.4027 27.0252 31.4385 27.6141C31.059 27.8463 30.7301 28.1518 30.3982 28.46L30.3981 28.4601L30.3981 28.4601C30.2782 28.5715 30.158 28.6831 30.0348 28.7919C29.5706 29.2016 29.0706 29.2736 28.6339 28.971C28.5128 28.8894 28.4112 28.7827 28.3363 28.6584C28.2613 28.5342 28.2148 28.3953 28.2 28.2515C28.1852 28.1077 28.2024 27.9624 28.2505 27.8258C28.2985 27.6893 28.3763 27.5647 28.4783 27.4607C28.6762 27.2374 28.893 27.03 29.1096 26.8229L29.1096 26.8228L29.1097 26.8228L29.1097 26.8228C29.2141 26.723 29.3184 26.6232 29.4205 26.5218C29.9177 26.0279 30.1919 25.4363 30.1257 24.7375C30.0541 23.9654 29.7152 23.3317 28.9411 23.0359C28.1449 22.7279 27.4135 22.9301 26.7757 23.443C26.5243 23.6411 26.3011 23.8691 26.0784 24.0967C25.9899 24.1871 25.9015 24.2774 25.8114 24.3657C25.2136 24.9505 24.6268 25.0197 24.1584 24.5434C23.7163 24.0943 23.7838 23.5041 24.3485 22.9437C28.4847 18.8314 32.6231 14.7214 36.7639 10.6136C37.3176 10.0641 37.7391 9.45892 37.6441 8.64479C37.6002 8.26075 37.4479 7.8965 37.2046 7.59331C36.9613 7.29012 36.6367 7.06011 36.2675 6.92932C35.8983 6.79854 35.4993 6.77222 35.1157 6.85334C34.7321 6.93447 34.3792 7.11979 34.0971 7.38831C33.4368 8.01959 32.7909 8.6657 32.1449 9.3119C31.8744 9.58243 31.604 9.85297 31.3324 10.1224L15.2447 26.0903C14.5036 26.8257 14.1151 26.8814 13.2101 26.3277C11.8588 25.5 11.0034 24.2463 10.3683 22.8636C9.96243 21.9788 9.62613 21.0622 9.28997 20.146C9.16526 19.8061 9.04056 19.4663 8.91233 19.1281C7.93294 16.5405 6.14357 14.8146 3.412 14.0981C3.18663 14.0387 2.94318 14.0441 2.69977 14.0495C2.58761 14.052 2.47547 14.0545 2.36511 14.0506C2.4277 14.3691 2.51427 14.6825 2.62408 14.9882C2.94292 15.7205 3.27413 16.448 3.60534 17.1755C4.25002 18.5916 4.89467 20.0075 5.44794 21.4579C6.38188 23.9043 6.92599 26.4567 6.85711 29.0985C6.8337 29.9669 6.13393 30.469 5.4135 30.1555C5.22524 30.0883 5.0639 29.9633 4.95329 29.7988C4.84267 29.6344 4.78863 29.4393 4.79914 29.2423C4.91623 25.8026 3.80321 22.6492 2.47117 19.5528C1.90916 18.2461 1.28791 16.9625 0.654261 15.6884C0.181781 14.7331 -0.0344858 13.786 0.654261 12.8661C1.38709 11.881 2.47531 11.7955 3.547 12.0438C7.18358 12.8959 9.61486 15.0886 10.9028 18.5569C11.4607 20.0603 12.1095 21.5339 12.7982 22.9857C12.9699 23.3528 13.2499 23.6704 13.53 23.9881C13.6567 24.1319 13.7835 24.2756 13.9002 24.424L14.1413 24.5204C14.1735 24.4643 14.2024 24.4044 14.2314 24.3443C14.293 24.2168 14.3548 24.0889 14.4485 23.9966C20.4544 18.0399 26.4584 12.0795 32.4606 6.11555C33.4841 5.09925 34.6976 4.60669 36.1426 4.81837C37.7984 5.06125 38.9403 6.00158 39.4899 7.54843C40.0396 9.09528 39.6704 10.52 38.5491 11.6829C36.9673 13.3223 35.3441 14.92 33.7218 16.5168C33.4483 16.7861 33.1747 17.0554 32.9014 17.3248C32.0652 18.1485 31.2167 18.9599 30.3494 19.7892L30.3493 19.7893L30.3462 19.7923C29.9544 20.167 29.5588 20.5453 29.1587 20.93C31.1299 21.7727 32.1851 23.1296 32.2154 25.1649C35.1949 25.2151 37.0931 27.6453 36.3479 30.3211ZM11.1673 8.00552C11.2288 8.12618 11.3092 8.23654 11.4056 8.33253C11.5423 8.47455 11.7203 8.5715 11.915 8.61012C12.1098 8.64874 12.312 8.62714 12.4938 8.54828C12.9167 8.37459 13.1206 8.04758 13.1564 7.54825C13.1306 7.4171 13.0899 7.2892 13.0352 7.16696C12.7655 6.6788 12.4959 6.18963 12.2259 5.69998C11.459 4.30867 10.6898 2.91344 9.91241 1.52638C9.81796 1.34272 9.66492 1.19467 9.4768 1.10495C9.28868 1.01524 9.07586 0.988826 8.87102 1.02976C8.44538 1.09625 8.12304 1.34999 8.04453 1.7652C8.00075 2.04295 8.04501 2.32725 8.17126 2.57933C9.01332 4.13502 9.8725 5.67881 10.7307 7.22087L11.1673 8.00552ZM23.4284 7.93505C23.0675 8.585 22.4958 8.79939 21.9448 8.50494C21.3952 8.20778 21.2588 7.61482 21.6128 6.97301C22.5899 5.19459 23.5748 3.41842 24.5675 1.64452C24.8582 1.12483 25.3197 0.91587 25.7963 1.05156C26.2398 1.17911 26.5511 1.58074 26.5511 2.15742C26.4883 2.34009 26.4137 2.51865 26.328 2.69204C25.3665 4.44242 24.4 6.19009 23.4284 7.93505Z" fill="white"/>
</svg>
