<svg width="32" height="32" viewBox="0 0 32 32" fill="none" xmlns="http://www.w3.org/2000/svg">
<path fill-rule="evenodd" clip-rule="evenodd" d="M16.0136 7.14857e-06C7.20632 -0.00826502 0.0128715 7.16382 -0.00022623 15.9648C-0.013324 24.7928 7.15876 31.9897 15.9791 32C24.7822 32.011 31.9798 24.8341 31.9929 16.0338C32.0067 7.20587 24.8325 0.00827837 16.0136 7.14857e-06ZM30.8892 16.011C30.8782 24.2206 24.1962 30.8963 15.9929 30.8963C7.78952 30.8936 1.10757 24.2213 1.10275 16.0055C1.09792 7.78975 7.80607 1.08575 16.0156 1.10298C24.2252 1.12021 30.9003 7.80147 30.8892 16.011ZM20.3388 19.5131C22.2656 20.3775 23.6967 21.7562 24.7059 23.6175C24.666 23.662 24.6267 23.7054 24.588 23.7483C24.4754 23.8727 24.3675 23.992 24.2634 24.1166C24.1773 24.2073 24.1092 24.3135 24.0627 24.4296C23.9835 24.6902 24.0621 24.917 24.304 25.05C24.6211 25.2244 24.8645 25.0858 25.094 24.848C29.7348 20.0335 29.8954 12.5319 25.4435 7.54513C25.0172 7.06688 24.5317 6.64046 24.0471 6.21492C23.9785 6.15466 23.9099 6.09442 23.8415 6.03405C23.7873 5.9815 23.7226 5.94106 23.6517 5.91541C23.5807 5.88977 23.5051 5.87951 23.4299 5.88531C23.3546 5.89111 23.2815 5.91284 23.2153 5.94907C23.1491 5.98529 23.0914 6.03517 23.0459 6.09541C22.8522 6.33806 22.8957 6.65723 23.159 6.88955C23.2326 6.95486 23.3086 7.01726 23.3847 7.07969C23.4419 7.12663 23.4992 7.17359 23.5554 7.22182C27.9266 10.9788 28.8565 17.4588 25.7151 22.2843C25.6637 22.363 25.6093 22.4394 25.5481 22.5252C25.5166 22.5694 25.4833 22.6161 25.4477 22.6669C24.2075 20.6278 22.5275 19.1787 20.3361 18.3315C20.9826 17.2768 21.3729 16.0852 21.4756 14.8523C21.6486 12.8194 21.2219 10.9388 19.9811 9.29747C18.9939 7.99804 17.7048 7.19562 16.0297 7.17839C14.5482 7.1646 13.317 7.78502 12.3712 8.888C10.4341 11.145 10.0874 13.7521 10.8671 16.5488C10.9849 16.9711 11.1691 17.375 11.3555 17.7839C11.4418 17.9731 11.5286 18.1634 11.6095 18.357C9.44422 19.1884 7.77735 20.6553 6.54892 22.6621C6.51666 22.6169 6.4912 22.5831 6.47005 22.555C6.44601 22.523 6.42755 22.4985 6.41105 22.4732C4.77681 20.0067 4.15363 17.3057 4.54151 14.3705C5.20329 9.3609 9.25603 5.26404 14.2539 4.54987C15.4149 4.38166 16.5941 4.38166 17.7551 4.54987C18.1598 4.60502 18.4293 4.40165 18.4714 4.07972C18.5134 3.75779 18.279 3.50204 17.8875 3.45172C17.6255 3.41794 17.3636 3.38623 17.1002 3.36624C13.4018 3.08636 10.1281 4.14935 7.42164 6.67516C4.09963 9.77382 2.81535 13.6432 3.50954 18.1357C3.91281 20.7443 5.10127 22.9785 6.93151 24.8742C7.21277 25.1644 7.54159 25.2058 7.78218 24.9886C8.03517 24.7605 8.01449 24.4247 7.72841 24.1097C7.63362 24.005 7.53942 23.8995 7.44256 23.791C7.39078 23.733 7.33825 23.6741 7.28446 23.6141C8.37158 21.6335 9.90816 20.1907 12.0141 19.3752C12.2596 19.2808 12.414 19.3083 12.6125 19.5007C14.5482 21.3792 17.194 21.475 19.149 19.6964C19.564 19.3187 19.8666 19.3007 20.3388 19.5131ZM12.9599 18.2688C12.07 17.1479 11.5812 15.6589 11.5812 13.7569C11.605 12.3183 12.1081 10.9286 13.011 9.80829C14.6833 7.76021 17.327 7.76986 18.9891 9.82828C20.8696 12.1562 20.8772 15.9705 19.0049 18.2915C17.3105 20.392 14.6427 20.3824 12.9599 18.2688Z" fill="white"/>
</svg>
