<svg width="18" height="12" viewBox="0 0 18 12" fill="none" xmlns="http://www.w3.org/2000/svg">
<path d="M16.5695 5.76573L16.5647 5.78023L16.5632 5.78462C16.7258 5.94496 16.8553 6.13569 16.9444 6.34603C17.0356 6.56121 17.0825 6.79251 17.0825 7.0262C17.0825 7.25988 17.0356 7.49118 16.9444 7.70636C16.8533 7.92147 16.7199 8.11608 16.5521 8.27864C16.5521 8.27869 16.552 8.27874 16.552 8.27879L13.3459 11.4849C13.3458 11.4849 13.3457 11.485 13.3457 11.4851C13.184 11.6555 12.9893 11.7913 12.7734 11.884C12.5575 11.9768 12.3249 12.0247 12.0899 12.0247C11.8549 12.0247 11.6223 11.9768 11.4063 11.884C11.1905 11.7913 10.9958 11.6555 10.8341 11.4851C10.834 11.485 10.834 11.4849 10.8339 11.4849L5.25447 5.90546L5.25446 5.90544L16.5695 5.76573ZM16.5695 5.76573L16.5588 5.75482M16.5695 5.76573L16.5588 5.75482M16.5588 5.75482L11.0433 0.130292C11.0433 0.130245 11.0432 0.130198 11.0432 0.130151L16.5588 5.75482ZM5.10604 1.25774V0.481032V0.480706C5.10778 0.347129 5.16162 0.219515 5.25609 0.125055C5.35055 0.0305941 5.47816 -0.0232453 5.61174 -0.0249916L5.61206 -0.0249959L10.6788 -0.0249937H10.6789V6.25983e-06C10.7436 -0.000326221 10.8077 0.012589 10.8673 0.0379576C10.9269 0.0633262 10.9806 0.100612 11.0252 0.147521L5.10604 1.25774ZM5.10604 1.25774H4.32933H4.32929C3.17501 1.25945 2.06849 1.71874 1.25229 2.53494C0.436089 3.35114 -0.0232032 4.45766 -0.0249095 5.61194V5.61198V5.93255V5.93266H9.04867e-05C-0.00247862 6.20711 0.0496829 6.47932 0.153526 6.73338C0.25737 6.98743 0.410812 7.21824 0.604885 7.41232C0.798958 7.60639 1.02977 7.75983 1.28382 7.86367C1.53788 7.96752 1.81009 8.01968 2.08454 8.01711M5.10604 1.25774V4.42202C4.83979 4.56664 4.61555 4.77822 4.45567 5.03615C4.28861 5.30567 4.19814 5.61562 4.19399 5.93269C4.19398 5.93279 4.19398 5.93289 4.19398 5.93299L4.16898 5.93266C4.17155 6.20711 4.11939 6.47932 4.01555 6.73338C3.91171 6.98743 3.75826 7.21824 3.56419 7.41232C3.37012 7.60639 3.13931 7.75983 2.88525 7.86367C2.63119 7.96752 2.35899 8.01968 2.08454 8.01711M2.08454 8.01711L2.0843 8.04211C2.08438 8.04211 2.08446 8.04211 2.08454 8.04211C2.08462 8.04211 2.08469 8.04211 2.08477 8.04211L2.08454 8.01711ZM2.08454 7.05506C2.23241 7.05678 2.37913 7.02892 2.51609 6.97312C2.65304 6.91733 2.77745 6.83472 2.88202 6.73015C2.98659 6.62558 3.0692 6.50116 3.125 6.36421C3.18079 6.22726 3.20865 6.08053 3.20693 5.93266L2.08454 7.05506ZM2.08454 7.05506C1.93667 7.05678 1.78994 7.02892 1.65299 6.97312M2.08454 7.05506L1.65299 6.97312M1.65299 6.97312C1.51604 6.91733 1.39162 6.83472 1.28705 6.73015M1.65299 6.97312L1.28705 6.73015M1.28705 6.73015C1.18248 6.62558 1.09987 6.50116 1.04408 6.36421M1.28705 6.73015L1.04408 6.36421M1.04408 6.36421C0.98828 6.22726 0.960423 6.08053 0.962143 5.93266L1.04408 6.36421ZM3.18193 5.93226L3.18193 5.93295C3.18361 6.07749 3.15639 6.22091 3.10185 6.35478C3.04731 6.48864 2.96656 6.61026 2.86434 6.71247C2.76213 6.81468 2.64052 6.89543 2.50665 6.94997C2.37279 7.00451 2.22937 7.03174 2.08483 7.03005L2.08425 7.03006C1.93971 7.03174 1.79629 7.00451 1.66242 6.94997C1.52856 6.89543 1.40694 6.81468 1.30473 6.71247C1.20252 6.61026 1.12177 6.48864 1.06723 6.35478C1.01269 6.22091 0.98546 6.07749 0.987143 5.93295V5.93266V5.61198C0.987143 4.72558 1.33926 3.87548 1.96605 3.2487C2.59283 2.62192 3.44292 2.2698 4.32933 2.2698H5.10604V3.32971C4.55712 3.50771 4.07694 3.85202 3.73219 4.31515C3.38378 4.78317 3.19129 5.34887 3.18193 5.93226ZM15.8377 7.5627L15.837 7.5633L12.6302 10.7701L12.6299 10.7704C12.5599 10.8429 12.476 10.9005 12.3832 10.9399C12.2904 10.9792 12.1907 10.9995 12.0899 10.9995C11.9891 10.9995 11.8894 10.9792 11.7966 10.9399C11.7038 10.9005 11.6199 10.8429 11.5499 10.7704L11.5496 10.7701L6.11809 5.33866V4.1939H8.17754C8.31174 4.1939 8.44045 4.14059 8.53535 4.04569C8.63025 3.95079 8.68356 3.82208 8.68356 3.68787C8.68356 3.55367 8.63025 3.42496 8.53535 3.33006C8.44045 3.23516 8.31174 3.18185 8.17754 3.18185H6.11809V0.987059H10.4631L15.8368 6.48248L15.8368 6.4825L15.8377 6.48328C15.9117 6.55235 15.9707 6.6359 16.011 6.72875C16.0514 6.8216 16.0722 6.92175 16.0722 7.02299C16.0722 7.12423 16.0514 7.22438 16.011 7.31723C15.9707 7.41007 15.9117 7.49363 15.8377 7.5627Z" fill="white" stroke="white" stroke-width="0.05"/>
</svg>
