<svg width="25" height="24" viewBox="0 0 25 24" fill="none" xmlns="http://www.w3.org/2000/svg">
<g clip-path="url(#clip0_48_137)">
<path d="M0.50002 0.801902V23.1981C0.499269 23.3037 0.519498 23.4083 0.55953 23.5059C0.599562 23.6035 0.6586 23.6922 0.733212 23.7668C0.807824 23.8414 0.896521 23.9005 0.994149 23.9405C1.09178 23.9805 1.19639 24.0008 1.3019 24H23.6981C23.8037 24.0008 23.9083 23.9805 24.0059 23.9405C24.1035 23.9005 24.1922 23.8414 24.2668 23.7668C24.3414 23.6922 24.4005 23.6035 24.4405 23.5059C24.4805 23.4083 24.5008 23.3037 24.5 23.1981V0.801902C24.5008 0.696388 24.4805 0.591777 24.4405 0.494149C24.4005 0.396521 24.3414 0.307824 24.2668 0.233212C24.1922 0.1586 24.1035 0.0995625 24.0059 0.0595301C23.9083 0.0194977 23.8037 -0.000730849 23.6981 2.01703e-05H1.3019C1.19639 -0.000730849 1.09178 0.0194977 0.994149 0.0595301C0.896521 0.0995625 0.807824 0.1586 0.733212 0.233212C0.6586 0.307824 0.599562 0.396521 0.55953 0.494149C0.519498 0.591777 0.499269 0.696388 0.50002 0.801902ZM18.1075 9.12567C18.1075 9.2499 18.1075 9.37414 18.1075 9.49837C18.1063 10.9738 17.7085 12.4219 16.9559 13.691C16.2033 14.96 15.1234 16.0036 13.8294 16.7124C12.5353 17.4212 11.0745 17.7692 9.59986 17.72C8.1252 17.6709 6.69085 17.2264 5.44684 16.433C5.67545 16.4604 5.90554 16.4736 6.13578 16.4725C7.43794 16.4765 8.70408 16.0452 9.73296 15.2471C9.12895 15.2352 8.54371 15.0351 8.05883 14.6747C7.57396 14.3143 7.21361 13.8116 7.02802 13.2367C7.46109 13.3187 7.90711 13.3013 8.33249 13.1859C7.68012 13.0536 7.09323 12.7006 6.67053 12.1864C6.24784 11.6721 6.01513 11.028 6.01155 10.3624V10.3285C6.41391 10.5499 6.86268 10.6737 7.32167 10.6899C6.69413 10.281 6.25018 9.64402 6.08368 8.91374C5.91718 8.18345 6.04117 7.41703 6.42943 6.77649C7.1557 7.6704 8.06203 8.40139 9.08945 8.92191C10.1169 9.44243 11.2424 9.74082 12.3927 9.79767C12.342 9.58115 12.3174 9.35933 12.3193 9.13696C12.3206 8.55676 12.4961 7.99032 12.823 7.51099C13.1499 7.03167 13.6132 6.66156 14.1529 6.4486C14.6926 6.23564 15.2839 6.18964 15.85 6.31657C16.4161 6.4435 16.9311 6.7375 17.3283 7.16049C17.9758 7.03159 18.5965 6.79285 19.1635 6.45461C18.9487 7.1257 18.4971 7.69573 17.893 8.05837C18.4663 7.99081 19.0261 7.83658 19.5532 7.60096C19.1649 8.19038 18.6755 8.70655 18.1075 9.12567Z" fill="#EF7962"/>
</g>
<defs>
<clipPath id="clip0_48_137">
<rect width="24" height="24" fill="white" transform="translate(0.5)"/>
</clipPath>
</defs>
</svg>
